<?xml version="1.0" encoding="UTF-8"?>
<!-- Generator: visioncortex VTracer 0.6.3 -->
<svg version="1.1" xmlns="http://www.w3.org/2000/svg" width="1280" height="1280">
<path d="M0 0 C4.46 0.42 7.73 2.42 11.44 4.75 C12.77 5.57 14.1 6.38 15.43 7.2 C16.15 7.64 16.88 8.09 17.62 8.55 C22.1 11.28 26.61 13.95 31.12 16.62 C32.07 17.18 33.01 17.74 33.97 18.31 C40.89 22.39 47.87 26.3 55 30 C55.26 37.25 54.51 43.94 53.19 51.06 C51.67 59.69 50.36 68.31 49.31 77 C49.13 78.45 49.13 78.45 48.95 79.92 C46.96 96.94 46.81 113.89 46.81 131.01 C46.81 133.7 46.81 136.39 46.79 139.08 C46.63 173.07 50.14 204.42 60 237 C60.22 237.74 60.44 238.48 60.66 239.25 C65.34 255.16 72.16 270.36 83 283 C83.43 283.51 83.86 284.02 84.31 284.55 C96.36 298.78 111.15 308.7 130 311 C156.91 313.04 181.81 302.59 202.06 285.25 C204.4 283.19 206.7 281.1 209 279 C209.64 278.43 210.28 277.85 210.94 277.26 C218.1 270.83 224.87 264.56 230.48 256.7 C230.98 256.14 231.48 255.58 232 255 C232.99 255 233.98 255 235 255 C233.53 261.02 230.18 265.22 226.5 270.06 C225.86 270.91 225.22 271.76 224.57 272.63 C223.29 274.32 222.01 276.02 220.72 277.71 C219.31 279.58 217.94 281.47 216.59 283.39 C211.21 290.84 205.01 297.3 198.56 303.81 C197.69 304.7 196.82 305.58 195.93 306.49 C175.82 326.46 146.84 342.49 117.93 343.04 C89.9 342.94 71.09 330.54 51.92 311.28 C45.71 304.94 40.57 298.64 36 291 C35.14 289.6 34.28 288.21 33.43 286.81 C13.54 253.98 4.63 217.4 -2 180 C-2.19 178.96 -2.37 177.91 -2.56 176.84 C-6.99 151.43 -7.3 125.92 -7.2 100.2 C-7.18 96.93 -7.19 93.65 -7.19 90.37 C-7.19 67.37 -6.91 44.64 -3.84 21.81 C-3.49 19.18 -3.15 16.55 -2.82 13.93 C-2.6 12.25 -2.38 10.57 -2.16 8.89 C-2.06 8.11 -1.95 7.33 -1.85 6.52 C-1.12 1.12 -1.12 1.12 0 0 Z " fill="#EEF1F0" transform="translate(537,472)"/>
<path d="M0 0 C1.01 0.01 1.01 0.01 2.04 0.01 C51.74 0.33 98.52 15.87 142.94 37.25 C143.92 37.72 144.89 38.18 145.9 38.67 C158.5 44.71 170.54 51.38 182.43 58.71 C185.03 60.31 187.65 61.87 190.28 63.43 C198.72 68.43 207 73.47 214.94 79.25 C216.08 80.01 217.22 80.76 218.38 81.5 C220.53 82.98 222.11 84.42 223.94 86.25 C224.82 86.77 225.71 87.28 226.62 87.81 C227.39 88.29 228.15 88.76 228.94 89.25 C228.94 89.91 228.94 90.57 228.94 91.25 C229.82 91.51 230.7 91.76 231.61 92.02 C234.99 93.27 237.27 94.71 240.12 96.88 C244.99 100.54 249.93 104.08 254.92 107.59 C255.58 108.14 256.25 108.68 256.94 109.25 C256.94 109.91 256.94 110.57 256.94 111.25 C258.11 111.53 258.11 111.53 259.31 111.81 C261.94 113.25 261.94 113.25 263.25 116.88 C263.48 117.99 263.7 119.1 263.94 120.25 C262.89 120.68 261.83 121.12 260.75 121.56 C258.48 122.53 256.5 123.52 254.38 124.81 C251.65 126.42 248.96 127.34 245.94 128.25 C245.94 128.91 245.94 129.57 245.94 130.25 C243.03 131.51 241.14 132.25 237.94 132.25 C237.61 133.24 237.28 134.23 236.94 135.25 C235.29 135.97 233.62 136.63 231.94 137.25 C230.08 138.36 228.25 139.51 226.44 140.69 C215.06 148.09 215.06 148.09 210.94 149.25 C207.86 148.25 206.15 146.54 203.94 144.25 C202.88 143.39 201.82 142.54 200.75 141.69 C199.82 140.88 198.89 140.08 197.94 139.25 C197.94 138.59 197.94 137.93 197.94 137.25 C197.3 136.98 196.66 136.71 196 136.44 C193.94 135.25 193.94 135.25 192.94 132.25 C192.22 131.96 191.49 131.67 190.75 131.38 C187.81 130.2 185.9 128.61 183.54 126.54 C181.43 124.84 179.09 123.63 176.72 122.34 C174.15 120.76 172.02 118.77 169.77 116.77 C167.26 114.69 164.55 113.06 161.73 111.43 C159.94 110.25 159.94 110.25 158.45 108.73 C156.73 107.04 155.1 106.33 152.94 105.25 C151.26 104.21 149.59 103.15 147.93 102.08 C142.03 98.29 136.06 94.63 130.06 91 C129.06 90.39 128.05 89.78 127.02 89.15 C124.32 87.51 121.63 85.88 118.94 84.25 C118.11 83.75 117.28 83.25 116.43 82.73 C112.09 80.15 107.67 77.74 103.25 75.31 C102.31 74.79 101.36 74.26 100.39 73.72 C95.02 70.77 89.66 68.19 83.92 66.01 C81.94 65.25 81.94 65.25 79.94 64.25 C79.94 63.59 79.94 62.93 79.94 62.25 C78.82 62.11 77.71 61.96 76.56 61.81 C72.94 61.25 72.94 61.25 70.94 60.25 C70.94 59.59 70.94 58.93 70.94 58.25 C69.95 58.58 68.96 58.91 67.94 59.25 C65.24 58.47 65.24 58.47 62.25 57.31 C60.76 56.74 60.76 56.74 59.24 56.16 C58.48 55.86 57.72 55.56 56.94 55.25 C56.94 54.59 56.94 53.93 56.94 53.25 C55.95 53.58 54.96 53.91 53.94 54.25 C51.51 53.42 49.23 52.39 46.91 51.3 C42.63 49.79 38.27 49.06 33.81 48.25 C32.87 48.08 31.94 47.9 30.97 47.72 C29.12 47.38 27.27 47.04 25.42 46.71 C23.36 46.33 21.31 45.94 19.25 45.55 C18.3 45.37 17.35 45.19 16.38 45 C15.59 44.85 14.8 44.7 14 44.55 C11.62 44.15 11.62 44.15 7.94 44.25 C5.88 44.23 3.83 44.2 1.77 44.18 C-0.71 44.16 -3.2 44.14 -5.69 44.12 C-6.92 44.11 -8.15 44.09 -9.43 44.07 C-15.89 44.04 -21.81 44.3 -28.09 45.91 C-30.06 46.25 -30.06 46.25 -33.06 45.25 C-33.06 45.91 -33.06 46.57 -33.06 47.25 C-33.76 47.49 -34.47 47.73 -35.19 47.98 C-45.38 51.29 -45.38 51.29 -54.06 57.25 C-55.36 58.29 -56.67 59.31 -58 60.31 C-58.69 60.84 -59.38 61.37 -60.09 61.91 C-62.06 63.25 -62.06 63.25 -65.06 64.25 C-65.37 65.05 -65.68 65.86 -66 66.69 C-67.06 69.25 -67.06 69.25 -69.12 70.25 C-69.76 70.58 -70.4 70.91 -71.06 71.25 C-71.2 71.96 -71.34 72.67 -71.48 73.39 C-72.21 76.96 -73.71 79.7 -75.38 82.94 C-86.39 105.42 -84.65 129.9 -80.62 153.88 C-80.52 154.53 -80.41 155.19 -80.29 155.87 C-78.95 164.03 -78.95 164.03 -76.92 172.04 C-76.06 175.25 -76.06 175.25 -77.06 177.25 C-76.4 177.25 -75.74 177.25 -75.06 177.25 C-75.39 178.57 -75.72 179.89 -76.06 181.25 C-77.05 181.25 -78.04 181.25 -79.06 181.25 C-79.39 180.41 -79.39 180.41 -79.73 179.55 C-81.67 174.63 -83.72 169.77 -85.88 164.94 C-91.75 151.26 -96.63 136.96 -99.06 122.25 C-99.27 121.05 -99.47 119.85 -99.68 118.61 C-103.11 95.4 -102.34 70.71 -92.06 49.25 C-91.07 48.75 -91.07 48.75 -90.06 48.25 C-89.75 47.32 -89.44 46.39 -89.12 45.44 C-88.13 42.44 -87.08 40.63 -85.06 38.25 C-85.39 37.59 -85.72 36.93 -86.06 36.25 C-85.4 36.25 -84.74 36.25 -84.06 36.25 C-83.84 35.69 -83.61 35.14 -83.38 34.56 C-81.7 31.62 -79.51 29.57 -77.06 27.25 C-77.39 26.59 -77.72 25.93 -78.06 25.25 C-77.11 24.98 -76.17 24.71 -75.19 24.44 C-71.46 23.02 -70.78 21.41 -68.75 18.12 C-66.63 15.77 -65.12 15.73 -62.06 15.25 C-61.73 14.59 -61.4 13.93 -61.06 13.25 C-58.25 12.36 -55.4 11.71 -52.53 11.03 C-51.72 10.77 -50.9 10.52 -50.06 10.25 C-49.73 9.59 -49.4 8.93 -49.06 8.25 C-46.1 6.97 -42.97 6.16 -39.88 5.25 C-39.04 4.99 -38.21 4.73 -37.35 4.46 C-25.06 0.78 -12.78 -0.09 0 0 Z " fill="#EDF0EF" transform="translate(491.0625,397.75)"/>
<path d="M0 0 C47.54 -0.83 91.97 9.19 127 43 C139.01 54.7 146.78 73.27 147.17 89.91 C147.53 133.65 128.34 171.09 99 203 C98.02 204.08 97.04 205.16 96.05 206.24 C94.2 208.27 92.33 210.3 90.46 212.32 C88.36 214.61 86.33 216.94 84.31 219.31 C81.51 222.54 78.48 225.33 75.22 228.09 C72.65 230.3 70.17 232.58 67.69 234.88 C63.26 238.91 58.73 242.77 54.06 246.53 C51.81 248.35 49.57 250.18 47.35 252.03 C37.89 259.86 28.15 267.09 18 274 C17.26 274.5 16.52 275.01 15.76 275.53 C2.75 284.35 -10.35 293.14 -24.24 300.51 C-26.87 301.93 -29.45 303.41 -32.03 304.91 C-38.3 308.54 -44.65 311.88 -51.16 315.08 C-55.72 317.33 -60.2 319.74 -64.69 322.12 C-84.99 332.85 -84.99 332.85 -92 333 C-95.99 329.01 -95.27 322.92 -95.54 317.54 C-95.58 316.72 -95.62 315.9 -95.67 315.06 C-95.76 313.32 -95.84 311.58 -95.93 309.84 C-96.06 307.23 -96.2 304.63 -96.34 302.03 C-96.87 291.67 -97.12 281.37 -97 271 C-91.51 268.16 -86.01 265.77 -80.25 263.56 C-60.08 255.64 -40.55 246.23 -21.71 235.54 C-19.73 234.41 -17.74 233.3 -15.75 232.2 C-7.79 227.75 -0.16 222.93 7.36 217.77 C9.13 216.56 10.9 215.36 12.68 214.15 C22.58 207.42 32.53 200.62 41.25 192.38 C42.25 191.43 43.26 190.49 44.27 189.55 C45.62 188.29 45.62 188.29 47 187 C48.33 185.83 49.66 184.66 51 183.5 C62.76 173.25 73.93 162.79 83 150 C83.54 149.28 84.08 148.56 84.64 147.81 C91.79 138.03 97.18 127.33 101.88 116.19 C102.16 115.52 102.45 114.85 102.74 114.16 C110.02 96.31 108.49 76.57 101.82 58.87 C91.25 34.89 66.08 22.05 43 13 C32.14 8.9 20.84 6.48 9.52 4.05 C8.43 3.82 7.34 3.58 6.22 3.33 C5.24 3.12 4.26 2.91 3.25 2.7 C2.51 2.47 1.76 2.24 1 2 C0.5 1.01 0.5 1.01 0 0 Z " fill="#EEF1F0" transform="translate(713,348)"/>
<path d="M0 0 C2.28 0.8 4.57 1.55 6.87 2.31 C29.28 9.9 50.88 20.33 70.41 33.72 C72.18 34.89 72.18 34.89 75.03 35.71 C76.04 36.71 77.04 37.71 78.03 38.71 C80.19 40.28 82.35 41.82 84.53 43.34 C92.91 49.24 100.79 55.44 108.03 62.71 C110.61 65 113.22 67.27 115.83 69.53 C117.89 71.57 118.82 73.13 120.03 75.71 C122.08 76.52 122.08 76.52 124.03 76.71 C124.03 77.7 124.03 78.69 124.03 79.71 C124.67 79.98 125.31 80.25 125.97 80.52 C128.03 81.71 128.03 81.71 129.03 84.71 C130.02 85.04 131.01 85.37 132.03 85.71 C133.82 87.42 133.82 87.42 135.66 89.52 C136.58 90.55 136.58 90.55 137.51 91.61 C139.06 93.75 139.72 95.1 140.03 97.71 C139.24 100.54 138.34 103.09 137.03 105.71 C136.37 105.71 135.71 105.71 135.03 105.71 C134.84 106.54 134.64 107.37 134.44 108.23 C132.61 112.77 129.86 115.8 126.6 119.4 C126.01 120.06 125.42 120.73 124.82 121.41 C123.24 123.19 121.65 124.96 120.03 126.71 C119.53 127.27 119.03 127.84 118.51 128.41 C117.03 129.71 117.03 129.71 114.35 129.84 C109.56 128.21 106.66 125.14 103.03 121.71 C101.73 120.58 100.41 119.46 99.1 118.34 C96.08 115.71 93.27 112.95 90.47 110.09 C87.85 107.42 85.31 105.06 82.22 102.96 C79.03 100.71 79.03 100.71 77.1 98.21 C74.63 95.22 71.99 93.7 68.64 91.82 C68.11 91.46 67.58 91.09 67.03 90.71 C67.03 90.05 67.03 89.39 67.03 88.71 C65.38 88.38 63.73 88.05 62.03 87.71 C62.03 87.05 62.03 86.39 62.03 85.71 C61.46 85.43 60.88 85.15 60.29 84.87 C58.09 83.74 56.01 82.52 53.91 81.21 C53.23 80.79 52.54 80.37 51.84 79.93 C50.03 78.71 50.03 78.71 48.03 76.71 C46.22 75.82 44.41 74.94 42.59 74.06 C38.25 71.78 34.14 69.12 29.99 66.52 C27.7 65.12 25.45 63.85 23.03 62.71 C23.03 62.05 23.03 61.39 23.03 60.71 C22.39 60.63 21.75 60.55 21.1 60.46 C15.43 59.07 10.23 56.34 5.03 53.71 C5.03 53.05 5.03 52.39 5.03 51.71 C4 51.61 2.97 51.51 1.91 51.4 C-1.99 50.71 -4.46 49.48 -7.97 47.71 C-9.93 47.04 -11.91 46.42 -13.9 45.84 C-18.7 44.41 -23.43 42.86 -28.15 41.21 C-34.62 39.03 -41.11 37.43 -47.8 36.06 C-51 35.39 -54.01 34.69 -57.11 33.63 C-60.18 32.64 -62.88 32.34 -66.09 32.15 C-69.53 31.93 -72.64 31.57 -75.97 30.71 C-77.04 30.71 -78.11 30.71 -79.22 30.71 C-82.97 30.71 -82.97 30.71 -86.66 30.22 C-90.99 29.66 -95.25 29.55 -99.61 29.54 C-100.82 29.54 -100.82 29.54 -102.06 29.53 C-103.77 29.53 -105.48 29.53 -107.19 29.53 C-109.73 29.52 -112.28 29.51 -114.82 29.49 C-130.66 29.43 -146.12 30.73 -161.59 34.21 C-162.57 34.42 -163.56 34.64 -164.57 34.86 C-168.25 35.65 -171.92 36.46 -175.57 37.35 C-176.77 37.64 -176.77 37.64 -177.99 37.93 C-178.69 38.1 -179.39 38.28 -180.1 38.46 C-181.97 38.71 -181.97 38.71 -184.97 37.71 C-184.97 38.37 -184.97 39.03 -184.97 39.71 C-186.13 40.16 -187.29 40.61 -188.48 41.07 C-192.56 42.64 -196.63 44.23 -200.7 45.82 C-202.57 46.55 -204.44 47.28 -206.31 48.01 C-213.83 51.02 -220.89 54.75 -227.98 58.64 C-230.05 59.76 -232.13 60.85 -234.22 61.93 C-234.91 62.29 -235.6 62.66 -236.31 63.03 C-237.64 63.72 -238.97 64.41 -240.31 65.1 C-243.74 66.76 -243.74 66.76 -245.97 69.71 C-247.63 70.72 -249.3 71.72 -250.97 72.71 C-253 74.29 -255.01 75.88 -257 77.5 C-258.97 78.71 -258.97 78.71 -262.97 78.71 C-263.3 80.03 -263.63 81.35 -263.97 82.71 C-264.96 82.71 -265.95 82.71 -266.97 82.71 C-267.21 83.33 -267.46 83.95 -267.72 84.59 C-269.19 87.1 -270.41 87.47 -272.97 88.71 C-273.3 89.7 -273.63 90.69 -273.97 91.71 C-276.55 94.03 -277.42 94.71 -280.97 94.71 C-279.49 88.39 -277.73 85.02 -272.54 81.12 C-270.24 79.06 -269.82 76.61 -268.97 73.71 C-267.65 73.01 -266.32 72.35 -264.97 71.71 C-264.04 70.29 -263.12 68.86 -262.23 67.42 C-260.19 64.66 -257.55 62.65 -254.93 60.45 C-252.26 58.09 -250.17 55.5 -247.97 52.71 C-247.31 52.05 -246.65 51.39 -245.97 50.71 C-244.76 49.44 -244.76 49.44 -243.53 48.15 C-240.97 45.71 -240.97 45.71 -237.97 44.71 C-237.97 44.05 -237.97 43.39 -237.97 42.71 C-236.04 41.11 -234.21 39.83 -231.97 38.71 C-231.31 37.72 -230.65 36.73 -229.97 35.71 C-228.98 35.71 -227.99 35.71 -226.97 35.71 C-224.62 34.21 -222.39 32.68 -220.15 31.02 C-219.55 30.59 -218.95 30.15 -218.32 29.71 C-215.34 27.54 -212.46 25.31 -209.66 22.92 C-207.15 20.86 -206.03 20.26 -202.97 19.71 C-202.31 19.05 -201.65 18.39 -200.97 17.71 C-198.68 16.29 -196.32 15.02 -193.97 13.71 C-193.97 13.38 -193.97 13.05 -193.97 12.71 C-192.71 12.32 -191.45 11.93 -190.15 11.52 C-185.46 9.97 -181.02 8 -176.54 5.9 C-171.82 3.73 -166.98 1.96 -162.09 0.21 C-160.33 -0.42 -160.33 -0.42 -158.54 -1.07 C-152.69 -3.07 -146.83 -4.59 -140.78 -5.85 C-136.4 -6.75 -136.4 -6.75 -132.05 -7.77 C-90.38 -18.16 -40.24 -14.19 0 0 Z M-275.97 86.71 C-274.97 88.71 -274.97 88.71 -274.97 88.71 Z " fill="#EDF0EF" transform="translate(650.96630859375,345.28857421875)"/>
<path d="M0 0 C6.8 -0.18 13.23 0.28 19.94 1.38 C20.81 1.51 21.67 1.65 22.57 1.79 C25.05 2.19 27.52 2.59 30 3 C31.8 3.28 31.8 3.28 33.63 3.57 C40.6 4.74 40.6 4.74 44 7 C43.28 14.14 41.73 21.01 40.12 28 C34.55 52.79 31.64 76.24 31.68 101.69 C31.69 105.23 31.66 108.77 31.64 112.32 C31.59 131.43 33.03 150.34 37.38 169 C37.69 170.41 37.69 170.41 38.02 171.85 C39.91 180.05 42.31 188.03 45 196 C45.33 197.03 45.65 198.06 45.99 199.12 C50.2 212.23 55.54 224.61 61.87 236.82 C63.08 239.16 64.27 241.52 65.45 243.88 C69.35 251.58 73.14 258.82 78.83 265.37 C81.11 268.14 83.11 271.02 85.12 273.98 C91.19 282.88 97.89 290.74 105.44 298.42 C106.81 299.8 108.15 301.21 109.5 302.62 C118.42 311.82 128.68 319.45 139 327 C139.93 327.7 140.85 328.39 141.8 329.11 C161.64 343.53 184.59 354.05 207.95 361.34 C210 362 210 362 212 363 C212 363.66 212 364.32 212 365 C200.81 366.99 191.02 365.68 180.06 362.88 C178.79 362.56 177.52 362.24 176.2 361.91 C144.65 353.92 114.4 342.49 88 323 C86.55 321.95 86.55 321.95 85.07 320.88 C79.24 316.6 73.73 312.14 68.42 307.23 C66.83 305.76 65.21 304.31 63.58 302.89 C36.34 279.12 16.45 247.54 2.93 214.28 C2.16 212.39 1.37 210.51 0.57 208.62 C-25.24 145.39 -26.06 63.16 0 0 Z " fill="#EEF1F0" transform="translate(456,478)"/>
<path d="M0 0 C9.71 8.84 13.47 23.37 17.49 35.58 C18.25 37.87 19.03 40.16 19.81 42.44 C23.21 52.54 25.38 62.49 27 73 C27.37 74.94 27.74 76.88 28.12 78.81 C29.53 87.48 29.76 96.24 30 105 C30.03 106.03 30.06 107.05 30.09 108.11 C30.42 122.22 29.89 135.78 27.41 149.69 C27.03 151.83 26.68 153.97 26.34 156.12 C25.06 163.73 23.26 171.13 21.19 178.56 C20.85 179.78 20.85 179.78 20.51 181.03 C16.65 194.38 10.8 207.02 4.75 219.5 C4.42 220.18 4.1 220.85 3.76 221.55 C-1.12 231.58 -6.25 241.09 -13 250 C-13.82 251.1 -14.63 252.21 -15.45 253.31 C-21.3 261.15 -27.59 268.62 -34 276 C-34.74 276.85 -35.48 277.7 -36.24 278.58 C-44.83 288.3 -53.99 297.74 -64 306 C-64.57 306.47 -65.14 306.95 -65.73 307.44 C-73.59 313.95 -81.43 320.43 -90 326 C-90.56 326.37 -91.12 326.73 -91.7 327.11 C-121.27 346.33 -153.9 360.11 -188 369 C-188.67 369.18 -189.34 369.36 -190.04 369.54 C-193.18 370.27 -195.8 370.35 -199 370 C-200.69 368 -200.69 368 -202 365 C-202.89 363.26 -202.89 363.26 -203.79 361.48 C-206.28 356.53 -208.46 351.47 -210.62 346.38 C-211.22 345 -211.22 345 -211.82 343.6 C-213.74 339.12 -215.56 334.67 -217 330 C-216.34 329.34 -215.68 328.68 -215 328 C-214.01 328 -213.02 328 -212 328 C-190.2 322.47 -168.84 314.58 -149 304 C-147.55 303.23 -147.55 303.23 -146.06 302.45 C-143.36 300.99 -140.68 299.5 -138 298 C-136.96 297.44 -135.92 296.88 -134.85 296.31 C-122.96 289.78 -112.25 281.72 -101.44 273.57 C-100.71 273.02 -99.99 272.47 -99.24 271.91 C-97.86 270.87 -96.49 269.83 -95.13 268.78 C-90.4 265.19 -90.4 265.19 -87.62 263.86 C-85.63 263.04 -85.63 263.04 -85 260 C-83.45 258.47 -83.45 258.47 -81.46 256.83 C-70.31 247.36 -59.8 236.69 -51 225 C-50.48 224.32 -49.96 223.63 -49.42 222.93 C-42 213.2 -35.03 203.38 -28.99 192.72 C-28.04 191.06 -27.03 189.43 -26.03 187.8 C-19.36 176.8 -14.69 164.96 -10 153 C-9.7 152.23 -9.4 151.47 -9.09 150.68 C-0.85 129.43 4.04 107.67 6 85 C6.07 84.25 6.14 83.5 6.21 82.73 C7.29 70.92 7.11 59.31 6.19 47.5 C6.1 46.37 6.01 45.24 5.92 44.08 C5 32.88 3.75 21.63 0.91 10.73 C-0.03 6.88 -0.16 3.92 0 0 Z " fill="#EEF1F0" transform="translate(865,377)"/>
<path d="M0 0 C7.84 7.07 11.72 16.93 12.9 27.25 C13.35 38.86 9.38 49.39 2.09 58.41 C-5.81 66.82 -15.31 70.09 -26.72 70.66 C-39.05 70.45 -47.74 66.24 -56.64 57.91 C-65.29 48.89 -67.42 39.94 -67.41 27.75 C-67.15 16.64 -62.79 7.39 -54.97 -0.52 C-38.09 -14.62 -16.81 -12.98 0 0 Z " fill="#EEF1F0" transform="translate(916.97265625,641.5234375)"/>
<path d="M0 0 C8.09 6.29 14.01 13.87 15.85 24.16 C17.2 36.05 16.18 47.6 8.95 57.54 C3.08 64.35 -3.27 69.04 -11.87 71.66 C-12.46 71.84 -13.05 72.02 -13.66 72.21 C-24.39 74.4 -35.62 72.82 -45.11 67.38 C-54.97 60.5 -61.44 51.46 -63.87 39.66 C-64.94 28.12 -62.46 17.07 -55.55 7.65 C-41.31 -9.16 -18.11 -12.84 0 0 Z " fill="#EEF1F0" transform="translate(428.8671875,674.33984375)"/>
<path d="M0 0 C7.67 5.92 7.67 5.92 10.21 10.09 C10.21 11.41 10.21 12.73 10.21 14.09 C11.7 14.59 11.7 14.59 13.21 15.09 C18.54 25.44 18.75 37.46 15.39 48.46 C13.2 53.34 9.74 57.13 6.21 61.09 C5.51 61.99 4.81 62.88 4.08 63.8 C2.18 66.13 1.03 67.13 -1.79 68.09 C-3.11 68.09 -4.43 68.09 -5.79 68.09 C-6.28 69.58 -6.28 69.58 -6.79 71.09 C-23.41 74.6 -23.41 74.6 -28.79 73.09 C-29.5 72.95 -30.21 72.81 -30.94 72.66 C-37.91 71.27 -42.77 69.28 -47.79 64.09 C-48.78 63.76 -49.77 63.43 -50.79 63.09 C-59.46 53.98 -63.33 42.44 -63.03 29.95 C-62.71 26.13 -61.91 22.75 -60.79 19.09 C-60.13 19.09 -59.47 19.09 -58.79 19.09 C-58.71 18.41 -58.64 17.72 -58.56 17.02 C-57.57 13.28 -55.67 10.47 -53.48 7.34 C-53.09 6.75 -52.69 6.17 -52.29 5.56 C-49.34 1.3 -49.34 1.3 -46.8 0.36 C-46.14 0.27 -45.47 0.18 -44.79 0.09 C-42.26 -1.12 -39.8 -2.43 -37.32 -3.75 C-25.9 -8.96 -10.12 -6.92 0 0 Z " fill="#EDF0EF" transform="translate(645.7890625,246.90625)"/>
<path d="M0 0 C1.09 -0.02 2.18 -0.04 3.3 -0.07 C7.75 0.76 10.6 2.23 13.69 5.56 C15.32 8.55 16.29 11.62 17.25 14.88 C17.83 16.66 18.4 18.45 18.98 20.24 C19.27 21.13 19.55 22.02 19.84 22.94 C21.11 26.86 22.54 30.71 24 34.56 C24.24 35.21 24.48 35.87 24.73 36.54 C25.9 39.64 27.13 42.64 28.69 45.56 C28.82 45.01 28.95 44.46 29.08 43.89 C31.21 35.68 34.32 27.78 37.55 19.94 C38.96 16.48 40.17 13.04 41.19 9.44 C42.31 6.13 43.64 3.52 46.53 1.36 C51.61 -0.51 57.37 0.23 62.69 0.56 C62.69 1.22 62.69 1.88 62.69 2.56 C63.68 2.89 64.67 3.22 65.69 3.56 C65.71 11.76 65.73 19.96 65.74 28.15 C65.74 31.96 65.75 35.76 65.76 39.57 C65.77 43.24 65.78 46.91 65.78 50.58 C65.78 51.98 65.79 53.39 65.79 54.79 C65.8 56.75 65.8 58.71 65.8 60.67 C65.8 61.78 65.81 62.9 65.81 64.05 C65.69 66.56 65.69 66.56 64.69 67.56 C62.47 67.77 62.47 67.77 59.75 67.81 C58.85 67.84 57.96 67.86 57.04 67.89 C56.26 67.78 55.49 67.67 54.69 67.56 C52.65 64.51 52.43 63.82 52.37 60.37 C52.35 59.53 52.33 58.69 52.31 57.82 C52.3 56.92 52.29 56.01 52.27 55.08 C52.25 54.15 52.23 53.23 52.21 52.27 C52.15 49.31 52.11 46.34 52.06 43.38 C52.02 41.37 51.99 39.36 51.95 37.35 C51.85 32.42 51.77 27.49 51.69 22.56 C51.03 22.56 50.37 22.56 49.69 22.56 C49.58 23.39 49.48 24.21 49.38 25.06 C48.58 29.13 47.21 32.72 45.69 36.56 C43.91 41.15 42.28 45.76 40.75 50.44 C35.79 65.46 35.79 65.46 33.69 67.56 C31.32 67.84 31.32 67.84 28.38 67.94 C27.41 67.99 26.44 68.04 25.45 68.09 C22.69 67.56 22.69 67.56 20.47 65.44 C18.57 62.37 17.5 59.64 16.44 56.19 C16.02 54.87 15.61 53.55 15.19 52.23 C14.96 51.5 14.73 50.77 14.49 50.01 C13.58 47.23 12.61 44.47 11.62 41.71 C11.26 40.7 10.9 39.68 10.53 38.63 C9.81 36.62 9.09 34.61 8.37 32.6 C6.58 27.56 5.19 22.89 4.69 17.56 C4.03 17.56 3.37 17.56 2.69 17.56 C2.69 18.17 2.69 18.79 2.69 19.42 C2.72 25.76 2.73 32.1 2.74 38.44 C2.75 40.81 2.75 43.18 2.76 45.55 C2.78 48.95 2.78 52.35 2.79 55.75 C2.79 56.81 2.8 57.88 2.8 58.98 C2.8 59.96 2.8 60.94 2.8 61.95 C2.8 62.82 2.81 63.69 2.81 64.58 C2.69 66.56 2.69 66.56 1.69 67.56 C-0.53 67.77 -0.53 67.77 -3.25 67.81 C-4.15 67.84 -5.04 67.86 -5.96 67.89 C-6.74 67.78 -7.51 67.67 -8.31 67.56 C-10.6 64.13 -10.57 62.82 -10.6 58.78 C-10.62 57.59 -10.63 56.4 -10.64 55.18 C-10.64 53.89 -10.65 52.61 -10.65 51.29 C-10.66 49.31 -10.66 49.31 -10.67 47.29 C-10.68 44.5 -10.68 41.71 -10.68 38.92 C-10.68 35.35 -10.71 31.78 -10.74 28.2 C-10.77 24.79 -10.77 21.38 -10.77 17.97 C-10.79 16.69 -10.8 15.41 -10.82 14.09 C-10.81 12.9 -10.8 11.7 -10.8 10.48 C-10.8 9.43 -10.8 8.38 -10.81 7.3 C-9.7 1.15 -5.7 -0.01 0 0 Z " fill="#EDF0EF" transform="translate(306.3125,955.4375)"/>
<path d="M0 0 C0.84 0.02 1.67 0.04 2.54 0.07 C6.83 0.73 8.57 1.98 11.31 5.38 C17.44 14.46 22.05 24.54 26.9 34.35 C27.95 36.46 29 38.57 30.06 40.68 C30.59 41.74 30.59 41.74 31.13 42.82 C31.4 43.36 31.66 43.89 31.94 44.44 C31.92 43.21 31.91 41.98 31.89 40.72 C31.84 36.18 31.8 31.63 31.77 27.09 C31.76 25.12 31.74 23.15 31.71 21.18 C31.67 18.35 31.66 15.53 31.64 12.7 C31.63 11.82 31.61 10.94 31.6 10.03 C31.6 9.21 31.6 8.39 31.6 7.54 C31.59 6.82 31.58 6.1 31.58 5.35 C32.05 2.83 32.9 1.96 34.94 0.44 C40.98 -0.21 40.98 -0.21 43.63 1.59 C45.5 4.24 45.32 6.21 45.33 9.44 C45.34 10.67 45.34 11.91 45.35 13.18 C45.35 14.53 45.34 15.87 45.34 17.22 C45.34 18.6 45.34 19.98 45.34 21.37 C45.35 24.26 45.34 27.15 45.33 30.04 C45.31 33.75 45.32 37.47 45.34 41.18 C45.35 44.03 45.35 46.88 45.34 49.73 C45.34 51.1 45.34 52.47 45.35 53.84 C45.35 55.75 45.34 57.66 45.33 59.57 C45.32 60.65 45.32 61.74 45.32 62.86 C45.19 63.71 45.07 64.56 44.94 65.44 C41.68 67.61 40.71 67.69 36.94 67.62 C36.07 67.62 35.2 67.61 34.31 67.61 C30.49 67.34 29.14 66.65 26.48 63.83 C23.87 60.54 22.02 56.98 20.25 53.19 C16.84 46.11 13.12 39.26 9.18 32.47 C7.09 28.81 5.4 25.71 4.94 21.44 C4.28 21.44 3.62 21.44 2.94 21.44 C3.1 22.58 3.26 23.72 3.43 24.9 C3.97 29.29 4.1 33.61 4.11 38.02 C4.11 38.81 4.11 39.59 4.12 40.4 C4.12 42.03 4.12 43.67 4.12 45.31 C4.13 47.83 4.14 50.34 4.16 52.86 C4.17 54.45 4.17 56.05 4.17 57.65 C4.18 58.4 4.18 59.15 4.19 59.93 C4.17 65.21 4.17 65.21 1.94 67.44 C-0.45 67.63 -0.45 67.63 -3.19 67.56 C-4.1 67.54 -5.01 67.53 -5.95 67.51 C-6.64 67.48 -7.34 67.46 -8.06 67.44 C-10.04 64.12 -10.33 61.58 -10.37 57.74 C-10.38 56.59 -10.4 55.45 -10.42 54.27 C-10.42 53.04 -10.43 51.8 -10.43 50.54 C-10.44 49.27 -10.45 48 -10.46 46.69 C-10.48 44 -10.49 41.32 -10.49 38.63 C-10.49 35.2 -10.53 31.76 -10.58 28.33 C-10.61 25.04 -10.62 21.76 -10.62 18.47 C-10.64 17.24 -10.66 16.01 -10.68 14.74 C-10.63 5.25 -10.63 5.25 -7.69 2.16 C-4.8 0.27 -3.41 -0.16 0 0 Z " fill="#EEF1F0" transform="translate(132.0625,955.5625)"/>
<path d="M0 0 C0.8 -0.02 1.6 -0.05 2.43 -0.07 C8.02 1.51 11.76 5.65 14.57 10.61 C15.29 12.02 16 13.44 16.69 14.88 C17.45 16.39 18.22 17.91 18.99 19.42 C19.35 20.15 19.72 20.88 20.09 21.64 C21.84 25.11 23.75 28.5 25.64 31.9 C27.89 36.12 30 40.41 32.12 44.69 C32.11 43.43 32.09 42.16 32.08 40.86 C32.02 36.19 31.99 31.52 31.96 26.85 C31.95 24.83 31.92 22.81 31.9 20.78 C31.86 17.88 31.85 14.97 31.83 12.07 C31.82 11.16 31.8 10.25 31.79 9.32 C31.78 8.48 31.78 7.64 31.78 6.77 C31.78 6.03 31.77 5.29 31.76 4.52 C31.88 3.92 32 3.31 32.12 2.69 C35.82 0.22 37.76 0.3 42.12 0.69 C43.82 1.83 43.82 1.83 45.12 3.69 C45.51 6.39 45.51 6.39 45.51 9.69 C45.52 10.92 45.53 12.16 45.54 13.43 C45.54 14.78 45.53 16.12 45.52 17.47 C45.53 18.85 45.53 20.23 45.53 21.62 C45.54 24.51 45.53 27.4 45.52 30.29 C45.5 34 45.51 37.72 45.53 41.43 C45.54 44.28 45.53 47.13 45.53 49.98 C45.52 51.35 45.53 52.72 45.53 54.09 C45.54 56 45.53 57.91 45.51 59.82 C45.51 60.9 45.51 61.99 45.51 63.11 C45.38 63.96 45.25 64.81 45.12 65.69 C41.83 67.88 40.6 68.01 36.75 68.06 C35.81 68.09 34.88 68.12 33.91 68.15 C30.19 67.53 28.78 66.38 26.12 63.69 C24.36 61.1 22.9 58.39 21.44 55.62 C20.8 54.45 20.8 54.45 20.16 53.26 C18.8 50.74 17.46 48.21 16.12 45.69 C15.18 43.93 14.24 42.17 13.29 40.42 C12.38 38.72 11.47 37.01 10.56 35.31 C10.13 34.51 9.7 33.71 9.26 32.88 C8.86 32.13 8.47 31.38 8.06 30.6 C7.71 29.94 7.36 29.28 7 28.6 C6.11 26.65 5.58 24.78 5.12 22.69 C4.47 22.69 3.8 22.69 3.12 22.69 C3.13 23.24 3.13 23.79 3.13 24.35 C3.15 30.04 3.17 35.74 3.18 41.43 C3.18 43.56 3.19 45.69 3.2 47.81 C3.21 50.86 3.22 53.91 3.22 56.96 C3.23 57.92 3.23 58.88 3.24 59.87 C3.24 60.75 3.24 61.63 3.24 62.53 C3.24 63.31 3.24 64.09 3.25 64.9 C3.12 66.69 3.12 66.69 2.12 67.69 C0.16 67.89 0.16 67.89 -2.25 67.94 C-3.04 67.96 -3.83 67.99 -4.65 68.02 C-7.48 67.6 -8.16 66.96 -9.88 64.69 C-10.27 62.12 -10.27 62.12 -10.29 59.01 C-10.31 57.85 -10.33 56.68 -10.34 55.48 C-10.34 54.22 -10.34 52.96 -10.34 51.66 C-10.35 50.37 -10.36 49.08 -10.37 47.74 C-10.38 45.01 -10.38 42.27 -10.38 39.53 C-10.37 36.03 -10.4 32.52 -10.44 29.02 C-10.47 25.67 -10.47 22.32 -10.47 18.98 C-10.49 17.72 -10.5 16.47 -10.52 15.17 C-10.44 5.49 -10.44 5.49 -7.49 2.4 C-4.72 0.58 -3.29 -0.02 0 0 Z " fill="#EEF1F0" transform="translate(657.875,955.3125)"/>
<path d="M0 0 C0.98 0.01 1.95 0.02 2.96 0.03 C4.06 0.04 4.06 0.04 5.19 0.06 C5.19 0.72 5.19 1.38 5.19 2.06 C5.75 1.86 6.31 1.65 6.89 1.44 C11.49 0.68 15.44 3.63 19.19 6.06 C25.04 11.17 28.66 17.08 29.49 24.89 C29.63 28.08 29.65 31.25 29.62 34.44 C29.65 36.05 29.65 36.05 29.69 37.69 C29.68 46.73 28.1 54.34 21.69 61 C20.54 62.04 19.37 63.06 18.19 64.06 C17.47 64.68 16.74 65.3 16 65.94 C10.86 69.13 4.33 68.36 -1.5 68.44 C-2.55 68.47 -3.6 68.51 -4.69 68.55 C-12.8 68.64 -18.72 67 -24.66 61.29 C-33.18 52.02 -33.35 42.31 -33.15 30.36 C-32.78 21.61 -29.95 15.03 -24.06 8.56 C-17.15 2.27 -9.23 -0.11 0 0 Z M-13 17.88 C-15.26 20.6 -15.93 22.61 -16.81 26.06 C-17.04 26.83 -17.28 27.61 -17.52 28.4 C-19.56 36.49 -18.12 43.46 -14.81 51.06 C-12.89 53.29 -11.44 54.75 -8.81 56.06 C-6.71 56.21 -4.61 56.28 -2.5 56.31 C-1.37 56.34 -0.24 56.36 0.93 56.39 C4.49 56.03 6.37 55.24 9.19 53.06 C9.19 52.4 9.19 51.74 9.19 51.06 C10.67 50.57 10.67 50.57 12.19 50.06 C14.35 42.86 14.75 35.54 15.19 28.06 C14.53 28.06 13.87 28.06 13.19 28.06 C13.37 26.55 13.37 26.55 13.56 25 C13.08 19.91 11.01 17.35 7.19 14.06 C-0.66 11.45 -6.75 12.7 -13 17.88 Z " fill="#EEF1F0" transform="translate(498.8125,954.9375)"/>
<path d="M0 0 C1.03 -0.01 2.06 -0.01 3.12 -0.02 C4.19 -0 5.26 0.02 6.36 0.03 C7.94 0.01 7.94 0.01 9.55 -0.02 C16.51 0.02 21.58 1.2 27.68 4.53 C28.39 4.87 29.11 5.21 29.85 5.56 C33.3 7.4 34.46 10.96 35.68 14.53 C36.62 20.78 35.12 25.37 31.68 30.53 C31.02 30.53 30.36 30.53 29.68 30.53 C30.79 31.61 30.79 31.61 31.93 32.72 C36.89 37.79 39.39 40.79 39.93 47.84 C39.47 54.52 37.54 58.02 32.68 62.41 C26.45 67.67 19.7 66.75 11.94 66.77 C9.68 66.78 7.43 66.81 5.17 66.84 C3.73 66.85 2.3 66.86 0.86 66.86 C-0.44 66.87 -1.75 66.88 -3.09 66.89 C-6.32 66.53 -6.32 66.53 -8 65.36 C-9.85 62.8 -9.71 60.98 -9.73 57.84 C-9.74 56.67 -9.75 55.5 -9.77 54.3 C-9.76 53.04 -9.76 51.77 -9.76 50.47 C-9.76 49.18 -9.77 47.88 -9.77 46.55 C-9.78 43.8 -9.78 41.06 -9.77 38.32 C-9.76 34.81 -9.78 31.29 -9.81 27.78 C-9.83 24.43 -9.82 21.08 -9.82 17.72 C-9.83 16.46 -9.84 15.2 -9.85 13.9 C-9.84 12.73 -9.84 11.56 -9.83 10.35 C-9.83 9.32 -9.83 8.29 -9.83 7.23 C-8.79 1.65 -5.31 0.03 0 0 Z M6.68 12.53 C5.53 15.96 5.77 18.14 6.11 21.72 C6.22 22.81 6.32 23.89 6.42 25.01 C6.51 25.84 6.59 26.67 6.68 27.53 C8.45 27.61 10.22 27.67 11.99 27.72 C12.97 27.75 13.96 27.79 14.98 27.82 C17.67 27.74 17.67 27.74 19.5 26.3 C20.97 24.08 21.11 22.68 21.11 20.03 C21.13 19.26 21.15 18.48 21.17 17.69 C20.84 15.4 20.84 15.4 18.98 13.76 C16.23 12.29 14.52 12.22 11.43 12.34 C10.09 12.38 10.09 12.38 8.72 12.43 C8.05 12.46 7.37 12.5 6.68 12.53 Z M4.68 15.53 C4.68 19.49 4.68 23.45 4.68 27.53 C5.01 27.53 5.34 27.53 5.68 27.53 C5.68 23.57 5.68 19.61 5.68 15.53 C5.35 15.53 5.02 15.53 4.68 15.53 Z M6.68 38.53 C5.13 41.63 5.84 44.79 6.11 48.16 C6.17 48.86 6.22 49.57 6.27 50.3 C6.4 52.04 6.54 53.79 6.68 55.53 C8.59 55.59 10.51 55.62 12.43 55.66 C13.49 55.68 14.56 55.7 15.66 55.73 C18.67 55.53 20.24 55.28 22.68 53.53 C24.24 51.28 24.68 49.99 24.64 47.24 C24.17 44.87 23.65 42.75 22.68 40.53 C17.98 37.59 12.07 38.34 6.68 38.53 Z M4.68 40.53 C4.68 45.48 4.68 50.43 4.68 55.53 C5.01 55.53 5.34 55.53 5.68 55.53 C5.68 50.58 5.68 45.63 5.68 40.53 C5.35 40.53 5.02 40.53 4.68 40.53 Z " fill="#EBEEED" transform="translate(1120.32421875,955.46875)"/>
<path d="M0 0 C1.03 -0.01 2.06 -0.01 3.12 -0.02 C4.19 -0 5.26 0.02 6.36 0.03 C7.94 0.01 7.94 0.01 9.55 -0.02 C19.43 0.03 26.52 2.74 33.68 9.53 C36.01 14.19 35.21 20.47 34.68 25.53 C33.3 28.32 32.08 29.49 29.68 31.53 C30.16 31.93 30.64 32.33 31.14 32.74 C31.77 33.27 32.4 33.8 33.05 34.34 C33.68 34.87 34.3 35.39 34.95 35.93 C37.65 38.44 38.63 40.16 39.12 43.82 C39.48 55.64 39.48 55.64 35.55 60.28 C30.45 65.31 25.27 66.91 18.2 66.93 C17.15 66.93 17.15 66.93 16.09 66.94 C14.63 66.94 13.17 66.93 11.72 66.92 C9.48 66.91 7.25 66.92 5.02 66.94 C3.6 66.94 2.18 66.94 0.76 66.93 C-0.53 66.93 -1.82 66.92 -3.14 66.92 C-6.32 66.53 -6.32 66.53 -8 65.36 C-9.85 62.8 -9.71 60.98 -9.73 57.84 C-9.74 56.67 -9.75 55.5 -9.77 54.3 C-9.76 53.04 -9.76 51.77 -9.76 50.47 C-9.76 49.18 -9.77 47.88 -9.77 46.55 C-9.78 43.8 -9.78 41.06 -9.77 38.32 C-9.76 34.81 -9.78 31.29 -9.81 27.78 C-9.83 24.43 -9.82 21.08 -9.82 17.72 C-9.83 16.46 -9.84 15.2 -9.85 13.9 C-9.84 12.73 -9.84 11.56 -9.83 10.35 C-9.83 9.32 -9.83 8.29 -9.83 7.23 C-8.79 1.65 -5.31 0.03 0 0 Z M6.68 12.53 C5.17 15.53 5.58 18.32 5.61 21.66 C5.62 22.94 5.63 24.22 5.64 25.54 C5.65 26.53 5.66 27.51 5.68 28.53 C7.8 28.28 9.93 28 12.05 27.72 C13.23 27.57 14.42 27.42 15.64 27.26 C18.97 26.82 18.97 26.82 20.68 23.53 C21.06 21.58 21.06 21.58 21.05 19.53 C21.08 18.85 21.11 18.17 21.14 17.47 C20.81 15.38 20.81 15.38 18.98 13.79 C16.23 12.29 14.54 12.22 11.43 12.34 C10.09 12.38 10.09 12.38 8.72 12.43 C8.05 12.46 7.37 12.5 6.68 12.53 Z M5.68 39.53 C5.68 45.14 5.68 50.75 5.68 56.53 C8.77 56.35 8.77 56.35 11.93 56.16 C13.67 56.05 13.67 56.05 15.44 55.95 C18.43 55.56 20.2 55.2 22.68 53.53 C24.97 50.1 24.85 48.55 24.68 44.53 C24.02 44.53 23.36 44.53 22.68 44.53 C22.63 43.91 22.59 43.29 22.55 42.66 C21.84 40.26 21.84 40.26 19.11 39.28 C14.74 38.33 9.82 37.46 5.68 39.53 Z " fill="#EEF1F0" transform="translate(247.32421875,955.46875)"/>
<path d="M0 0 C1.52 -0.02 1.52 -0.02 3.07 -0.04 C4.68 -0.02 4.68 -0.02 6.31 0 C7.39 0.01 8.48 0.02 9.59 0.03 C18.07 0.25 25.06 1.2 31.46 7.16 C36.25 12.56 36.14 17.07 36.1 24.07 C35.59 29.09 34.25 30.99 30.75 34.57 C29.43 35.58 28.1 36.59 26.75 37.57 C27.14 38.05 27.54 38.54 27.95 39.04 C31.12 43.04 33.43 46.63 35.02 51.49 C36.1 54.58 37.6 57.47 39.07 60.39 C39.91 63.1 39.49 64.86 38.75 67.57 C36.81 67.65 34.87 67.71 32.93 67.75 C31.85 67.79 30.78 67.82 29.66 67.86 C26.75 67.57 26.75 67.57 25.05 66.49 C23.16 63.7 21.96 60.69 20.75 57.57 C19.77 55.13 18.79 52.69 17.81 50.25 C17.33 49.04 16.84 47.83 16.34 46.58 C15.01 43.57 15.01 43.57 12.87 42.09 C10.22 41.44 8.37 41.98 5.75 42.57 C5.72 43.29 5.7 44.01 5.67 44.75 C5.55 48 5.43 51.25 5.31 54.5 C5.27 55.64 5.23 56.78 5.19 57.95 C5.15 59.03 5.11 60.11 5.06 61.22 C5.01 62.72 5.01 62.72 4.95 64.25 C4.75 66.57 4.75 66.57 3.75 67.57 C1.94 67.72 0.12 67.79 -1.69 67.82 C-2.68 67.84 -3.67 67.87 -4.69 67.89 C-5.53 67.79 -6.38 67.68 -7.25 67.57 C-9.54 64.13 -9.51 62.83 -9.54 58.78 C-9.56 57.59 -9.57 56.41 -9.58 55.18 C-9.59 53.9 -9.59 52.61 -9.59 51.29 C-9.6 49.31 -9.6 49.31 -9.61 47.3 C-9.62 44.51 -9.63 41.72 -9.62 38.93 C-9.62 35.35 -9.65 31.78 -9.69 28.21 C-9.71 24.8 -9.71 21.39 -9.71 17.98 C-9.73 16.69 -9.74 15.41 -9.76 14.09 C-9.75 12.9 -9.75 11.71 -9.74 10.48 C-9.74 9.43 -9.75 8.38 -9.75 7.31 C-8.74 1.74 -5.3 0.06 0 0 Z M4.75 14.57 C4.5 17.92 4.5 17.92 4.62 21.69 C4.64 22.97 4.66 24.25 4.68 25.57 C4.7 26.56 4.72 27.55 4.75 28.57 C8.24 30.31 11.94 30.13 15.75 29.57 C18.98 27.75 18.98 27.75 20.75 24.57 C21.53 20.28 21.21 17.26 18.75 13.57 C15.94 12.63 14.09 12.4 11.18 12.38 C10.4 12.36 9.61 12.35 8.8 12.34 C6.52 12.37 6.52 12.37 4.75 14.57 Z " fill="#EEF1F0" transform="translate(876.25390625,955.43359375)"/>
<path d="M0 0 C1.17 -0.03 1.17 -0.03 2.37 -0.05 C5.12 0.4 5.84 1.16 7.56 3.31 C7.94 5.26 7.94 5.26 7.95 7.49 C7.96 8.33 7.97 9.17 7.98 10.03 C7.97 10.93 7.97 11.84 7.97 12.77 C7.98 13.7 7.99 14.63 8 15.59 C8.04 18.58 8.05 21.57 8.06 24.56 C8.08 28.48 8.11 32.41 8.16 36.33 C8.15 37.22 8.15 38.12 8.15 39.04 C8.21 44.52 8.84 48.5 11.56 53.31 C14.74 54.37 17.16 54.51 20.5 54.56 C21.54 54.59 22.58 54.61 23.65 54.64 C26.95 54.27 28.27 53.68 30.56 51.31 C31.49 48.47 31.69 45.85 31.72 42.87 C31.74 41.56 31.74 41.56 31.75 40.23 C31.76 38.83 31.76 38.83 31.77 37.4 C31.8 35.42 31.83 33.45 31.86 31.47 C31.9 28.35 31.94 25.23 31.96 22.12 C31.99 19.11 32.04 16.1 32.09 13.09 C32.09 12.16 32.09 11.22 32.1 10.26 C32.11 9.39 32.13 8.52 32.15 7.63 C32.15 6.87 32.16 6.1 32.17 5.32 C32.67 2.78 33.55 1.88 35.56 0.31 C37.72 -0.05 37.72 -0.05 40.06 0 C40.84 0 41.61 0.01 42.41 0.01 C44.56 0.31 44.56 0.31 47.56 2.31 C47.96 4.31 47.96 4.31 47.98 6.79 C48 7.72 48.01 8.64 48.03 9.6 C48.03 10.61 48.03 11.62 48.03 12.66 C48.04 14.21 48.04 14.21 48.05 15.8 C48.07 18.01 48.07 20.22 48.06 22.42 C48.06 25.77 48.1 29.12 48.15 32.47 C48.15 34.61 48.16 36.76 48.16 38.91 C48.18 40.39 48.18 40.39 48.21 41.91 C48.13 50.03 45.97 56.91 40.12 62.75 C39.28 63.27 38.43 63.78 37.56 64.31 C36.74 64.83 35.92 65.35 35.08 65.88 C30.24 67.85 25.92 67.83 20.75 67.81 C19.8 67.84 18.86 67.87 17.88 67.9 C9.94 67.92 4.14 65.79 -1.59 60.21 C-2.04 59.57 -2.48 58.92 -2.94 58.25 C-3.4 57.6 -3.87 56.95 -4.34 56.28 C-6.3 52.76 -6.56 49.46 -6.58 45.48 C-6.59 44.53 -6.6 43.58 -6.6 42.59 C-6.6 41.57 -6.6 40.55 -6.61 39.49 C-6.61 38.44 -6.61 37.38 -6.62 36.3 C-6.62 34.07 -6.62 31.84 -6.62 29.61 C-6.62 26.19 -6.64 22.77 -6.66 19.36 C-6.67 17.19 -6.67 15.03 -6.67 12.87 C-6.68 11.84 -6.68 10.81 -6.69 9.75 C-6.69 8.81 -6.68 7.86 -6.68 6.88 C-6.68 6.05 -6.68 5.21 -6.68 4.35 C-6.17 0.15 -3.64 0.02 0 0 Z " fill="#EEF1F0" transform="translate(1051.4375,955.6875)"/>
<path d="M0 0 C0.77 -0.01 1.55 -0.02 2.34 -0.02 C5.05 0.48 5.8 1.24 7.5 3.38 C7.88 5.37 7.88 5.37 7.88 7.66 C7.89 8.52 7.9 9.38 7.92 10.27 C7.91 11.2 7.91 12.13 7.91 13.08 C7.92 14.04 7.93 15 7.94 15.99 C7.97 19.05 7.99 22.12 8 25.19 C8.01 29.22 8.05 33.24 8.09 37.27 C8.09 38.19 8.09 39.11 8.08 40.06 C8.14 45.21 8.5 48.99 11.5 53.38 C14.55 54.39 16.74 54.54 19.94 54.56 C21.36 54.58 21.36 54.58 22.81 54.61 C25.66 54.36 27.19 54.06 29.5 52.38 C32.2 47.56 31.85 42.4 31.91 37.04 C31.93 36.05 31.95 35.06 31.97 34.04 C32.03 30.88 32.08 27.72 32.12 24.56 C32.16 22.42 32.2 20.27 32.24 18.13 C32.34 12.88 32.42 7.63 32.5 2.38 C33.16 2.04 33.82 1.72 34.5 1.38 C34.5 1.04 34.5 0.72 34.5 0.38 C35.94 0.32 37.37 0.28 38.81 0.25 C39.61 0.23 40.41 0.2 41.24 0.18 C43.5 0.38 43.5 0.38 46.5 2.38 C46.88 4.43 46.88 4.43 46.89 6.99 C46.9 7.95 46.91 8.91 46.92 9.89 C46.91 10.93 46.9 11.97 46.9 13.04 C46.9 14.11 46.9 15.18 46.91 16.28 C46.91 18.55 46.9 20.81 46.89 23.08 C46.88 26.53 46.89 29.98 46.91 33.44 C46.91 35.64 46.9 37.84 46.9 40.04 C46.91 41.59 46.91 41.59 46.92 43.16 C46.85 50.17 46.18 55.35 41.38 60.77 C40.61 61.43 39.85 62.08 39.06 62.75 C38.3 63.42 37.54 64.09 36.75 64.77 C31.82 68.28 26.01 67.59 20.19 67.62 C19.26 67.65 18.34 67.67 17.38 67.69 C10.65 67.73 5.69 67.09 0.39 62.58 C-0.15 61.93 -0.69 61.29 -1.25 60.62 C-1.8 59.99 -2.35 59.36 -2.92 58.7 C-7.41 52.08 -7.95 46.56 -7.9 38.73 C-7.9 37.73 -7.9 36.73 -7.91 35.69 C-7.91 33.58 -7.9 31.47 -7.89 29.36 C-7.87 26.12 -7.89 22.89 -7.91 19.65 C-7.91 17.59 -7.9 15.54 -7.9 13.48 C-7.9 12.52 -7.91 11.55 -7.92 10.55 C-7.91 9.65 -7.9 8.75 -7.89 7.83 C-7.89 7.04 -7.88 6.25 -7.88 5.43 C-7.05 0.94 -4.21 -0.04 0 0 Z " fill="#EEF1F0" transform="translate(588.5,955.625)"/>
<path d="M0 0 C0.87 -0.01 1.73 -0.02 2.62 -0.02 C5.51 0.46 6.15 1.16 8 3.38 C8.84 5.32 8.84 5.32 9.5 7.51 C9.75 8.31 10 9.12 10.25 9.95 C10.5 10.79 10.75 11.63 11 12.5 C11.5 14.15 12 15.8 12.5 17.45 C12.75 18.27 12.99 19.09 13.25 19.93 C13.97 22.28 14.74 24.61 15.52 26.93 C17.27 32.11 18.77 37.35 20.28 42.6 C21.4 46.57 21.4 46.57 23 50.38 C23.17 49.73 23.34 49.09 23.52 48.43 C25.5 41.02 27.67 33.68 30 26.38 C30.3 25.42 30.6 24.47 30.91 23.48 C31.95 20.21 33.01 16.95 34.06 13.69 C34.57 12.07 34.57 12.07 35.09 10.43 C35.43 9.41 35.76 8.4 36.1 7.36 C36.39 6.45 36.69 5.54 36.99 4.6 C38 2.38 38 2.38 41 0.38 C44.71 0.18 47.47 0.2 51 1.38 C51.23 7.1 50.66 11.36 48.77 16.85 C48.54 17.53 48.3 18.22 48.07 18.93 C47.33 21.1 46.57 23.27 45.81 25.44 C45.32 26.86 44.84 28.29 44.35 29.72 C43.38 32.54 42.41 35.37 41.44 38.19 C39.61 43.5 37.86 48.83 36.11 54.16 C32.36 65.01 32.36 65.01 30 67.38 C27.54 67.58 25.15 67.7 22.69 67.75 C21.67 67.81 21.67 67.81 20.63 67.86 C18.64 67.9 18.64 67.9 15 67.38 C11.38 63.74 9.84 59.79 8.38 54.98 C8.15 54.26 7.93 53.55 7.69 52.82 C6.97 50.55 6.27 48.27 5.56 46 C5.09 44.51 4.62 43.02 4.15 41.54 C3.45 39.32 2.76 37.11 2.06 34.89 C0.14 28.77 -1.87 22.69 -3.92 16.62 C-5.38 12.23 -6.72 7.81 -8 3.38 C-5.54 0.32 -3.87 -0.03 0 0 Z " fill="#EEF1F0" transform="translate(410,955.625)"/>
<path d="M0 0 C1.01 0 1.01 0 2.04 0.01 C3.46 0.02 4.88 0.04 6.29 0.07 C8.46 0.12 10.63 0.13 12.8 0.14 C23.37 0.25 23.37 0.25 26.84 2.56 C27.13 4.94 27.13 4.94 27.02 7.68 C26.98 9.05 26.98 9.05 26.94 10.44 C26.91 11.14 26.87 11.84 26.84 12.56 C26.14 12.58 25.45 12.61 24.74 12.63 C21.63 12.75 18.51 12.87 15.4 13 C13.77 13.06 13.77 13.06 12.1 13.12 C10.55 13.18 10.55 13.18 8.96 13.24 C8.01 13.28 7.05 13.32 6.06 13.35 C3.86 13.32 3.86 13.32 2.84 14.56 C2.6 16.57 2.42 18.6 2.27 20.62 C2.19 21.73 2.11 22.83 2.02 23.97 C1.96 24.82 1.9 25.68 1.84 26.56 C2.4 26.54 2.96 26.53 3.53 26.51 C6.07 26.45 8.61 26.41 11.15 26.37 C12.03 26.35 12.91 26.32 13.82 26.29 C14.67 26.29 15.51 26.28 16.39 26.27 C17.17 26.25 17.95 26.23 18.75 26.22 C20.84 26.56 20.84 26.56 22.6 27.78 C24.2 30.08 24.14 31.48 24.02 34.25 C23.98 35.46 23.98 35.46 23.94 36.7 C23.91 37.31 23.87 37.93 23.84 38.56 C23.24 38.58 22.63 38.61 22.02 38.63 C19.31 38.75 16.6 38.87 13.9 39 C12.48 39.06 12.48 39.06 11.03 39.12 C10.13 39.16 9.23 39.2 8.31 39.24 C7.06 39.3 7.06 39.3 5.79 39.35 C3.83 39.35 3.83 39.35 2.84 40.56 C2.6 42.91 2.42 45.26 2.27 47.62 C2.19 48.91 2.11 50.2 2.02 51.53 C1.96 52.53 1.9 53.53 1.84 54.56 C2.49 54.55 3.14 54.54 3.81 54.53 C6.75 54.49 9.7 54.46 12.65 54.43 C13.67 54.42 14.7 54.4 15.75 54.38 C16.73 54.38 17.72 54.37 18.73 54.36 C19.64 54.35 20.54 54.34 21.48 54.33 C23.84 54.56 23.84 54.56 26.84 56.56 C27.13 58.94 27.13 58.94 27.02 61.68 C26.98 63.05 26.98 63.05 26.94 64.44 C26.91 65.14 26.87 65.84 26.84 66.56 C21.6 66.63 16.37 66.69 11.14 66.72 C9.36 66.74 7.58 66.76 5.79 66.78 C3.24 66.82 0.68 66.84 -1.88 66.85 C-2.67 66.87 -3.47 66.88 -4.3 66.9 C-6.54 66.9 -6.54 66.9 -10.16 66.56 C-12.42 63.17 -12.43 61.95 -12.47 57.97 C-12.49 56.83 -12.5 55.68 -12.52 54.5 C-12.52 53.27 -12.53 52.03 -12.54 50.75 C-12.54 49.48 -12.55 48.21 -12.56 46.9 C-12.58 44.21 -12.59 41.52 -12.59 38.83 C-12.59 35.38 -12.63 31.94 -12.68 28.5 C-12.72 25.21 -12.72 21.92 -12.72 18.63 C-12.74 17.4 -12.76 16.16 -12.78 14.89 C-12.74 6.46 -12.74 6.46 -10.08 2.28 C-6.46 0.14 -4.19 -0.05 0 0 Z " fill="#EEF1F0" transform="translate(778.1640625,955.44140625)"/>
<path d="M0 0 C1.01 0 1.01 0 2.05 0.01 C4.2 0.03 6.35 0.07 8.5 0.11 C9.95 0.12 11.4 0.13 12.85 0.14 C23.39 0.24 23.39 0.24 26.93 1.43 C26.93 5.06 26.93 8.69 26.93 12.43 C25.36 12.49 23.78 12.55 22.16 12.61 C20.1 12.69 18.05 12.78 16 12.86 C14.43 12.92 14.43 12.92 12.84 12.98 C11.36 13.05 11.36 13.05 9.84 13.11 C8.93 13.15 8.01 13.18 7.07 13.22 C4.95 13.2 4.95 13.2 3.93 14.43 C3.7 16.44 3.52 18.46 3.37 20.49 C3.29 21.59 3.2 22.7 3.12 23.84 C3.06 24.69 3 25.55 2.93 26.43 C4.19 26.38 5.44 26.33 6.73 26.29 C8.38 26.25 10.03 26.21 11.68 26.18 C12.92 26.13 12.92 26.13 14.18 26.07 C20.3 25.98 20.3 25.98 23.49 28.25 C25.4 31.13 25.3 33.03 24.93 36.43 C24.44 37.42 24.44 37.42 23.93 38.43 C23.08 38.46 23.08 38.46 22.21 38.5 C19.64 38.62 17.07 38.74 14.5 38.86 C13.6 38.9 12.7 38.94 11.78 38.98 C10.92 39.02 10.07 39.07 9.19 39.11 C8.4 39.15 7.61 39.18 6.79 39.22 C4.92 39.23 4.92 39.23 3.93 40.43 C3.7 42.78 3.52 45.13 3.37 47.49 C3.29 48.78 3.2 50.07 3.12 51.4 C3.06 52.4 3 53.4 2.93 54.43 C3.55 54.42 4.17 54.4 4.81 54.39 C7.62 54.35 10.44 54.33 13.25 54.3 C14.22 54.28 15.2 54.27 16.21 54.25 C17.14 54.24 18.08 54.24 19.05 54.23 C19.91 54.22 20.78 54.21 21.67 54.2 C23.93 54.43 23.93 54.43 26.93 56.43 C26.93 59.73 26.93 63.03 26.93 66.43 C14.72 66.43 2.51 66.43 -10.07 66.43 C-11.39 63.77 -11.22 61.73 -11.24 58.75 C-11.26 57.57 -11.27 56.38 -11.28 55.15 C-11.29 53.86 -11.3 52.57 -11.3 51.25 C-11.31 49.93 -11.32 48.61 -11.33 47.25 C-11.34 44.45 -11.35 41.66 -11.36 38.86 C-11.37 35.28 -11.41 31.7 -11.45 28.12 C-11.47 25.37 -11.48 22.61 -11.48 19.86 C-11.49 17.9 -11.52 15.94 -11.55 13.98 C-11.54 12.78 -11.54 11.59 -11.54 10.36 C-11.54 9.3 -11.55 8.25 -11.55 7.17 C-10.38 0.55 -5.98 -0.07 0 0 Z " fill="#EEF1F0" transform="translate(828.06640625,955.57421875)"/>
<path d="M0 0 C2.3 3.63 1.82 7.19 1.5 11.38 C-1.65 10.93 -4.49 10.38 -7.5 9.31 C-12.01 7.9 -15.99 7.99 -20.5 9.38 C-21.44 14.43 -21.44 14.43 -20.5 19.38 C-18.52 20.11 -16.52 20.77 -14.5 21.38 C-8.25 24.15 -0.93 28.02 3.5 33.38 C4.78 36.76 4.67 40.22 4.69 43.81 C4.7 44.92 4.72 46.04 4.73 47.18 C4.36 52.36 2.79 55.51 -0.88 59.12 C-1.75 60.01 -1.75 60.01 -2.65 60.92 C-7.2 64.5 -13.44 63.56 -18.94 63.56 C-19.88 63.57 -20.82 63.59 -21.79 63.6 C-27.87 63.61 -32.27 63.55 -36.81 59.12 C-38.81 55.87 -38.99 54.14 -38.5 50.38 C-37.84 49.38 -37.18 48.39 -36.5 47.38 C-35.3 47.87 -34.11 48.37 -32.88 48.88 C-26.55 51.01 -20.1 50.83 -13.5 50.38 C-12.51 49.88 -12.51 49.88 -11.5 49.38 C-11.41 47.49 -11.41 47.49 -11.31 45.56 C-11.28 44.85 -11.24 44.15 -11.21 43.42 C-11.6 40.67 -12.28 40.04 -14.5 38.38 C-16.71 37.29 -18.94 36.26 -21.19 35.25 C-27.71 32.17 -32.41 28.45 -36.5 22.38 C-38.15 17.42 -38.58 12.84 -36.44 7.96 C-32.62 1.77 -27.94 -2.18 -21 -4.44 C-12.84 -5.05 -6.97 -4.53 0 0 Z " fill="#EEF1F0" transform="translate(224.5,959.625)"/>
<path d="M0 0 C3.15 4.06 2.32 8.55 1.94 13.5 C-1.35 13.12 -3.64 12.78 -6.44 10.94 C-9.97 9 -13.16 8.9 -17.06 9.5 C-20.36 10.9 -20.36 10.9 -23.06 12.5 C-23.72 12.5 -24.38 12.5 -25.06 12.5 C-25.33 13.3 -25.6 14.11 -25.88 14.94 C-26.51 16.84 -27.15 18.74 -27.86 20.62 C-31.03 29.27 -30.83 36.03 -27.06 44.5 C-24.32 48.95 -22.11 50.3 -17.06 51.5 C-13.54 51.14 -13.54 51.14 -10 50.19 C-8.81 49.9 -7.63 49.62 -6.4 49.32 C-5.3 49.05 -4.2 48.78 -3.06 48.5 C-1.4 48.16 0.27 47.82 1.94 47.5 C2.05 49.44 2.12 51.37 2.19 53.31 C2.23 54.39 2.28 55.47 2.33 56.58 C1.94 59.5 1.94 59.5 0.17 61.32 C-4.95 64.02 -10.21 63.72 -15.88 63.75 C-16.75 63.77 -17.63 63.79 -18.53 63.81 C-25.1 63.85 -29.78 63 -35.14 58.92 C-43.17 50.6 -46.06 42.65 -46.38 31.12 C-46.17 20.83 -43.65 12.51 -37.06 4.5 C-25.86 -6.13 -13.37 -6.55 0 0 Z " fill="#EEF1F0" transform="translate(990.0625,959.5)"/>
<path d="M0 0 C1.31 -0 1.31 -0 2.64 -0.01 C3.58 0 4.51 0.02 5.48 0.03 C6.45 0.03 7.41 0.03 8.41 0.03 C10.45 0.04 12.49 0.05 14.53 0.08 C17.66 0.11 20.78 0.12 23.91 0.12 C25.89 0.13 27.87 0.14 29.86 0.15 C30.79 0.16 31.73 0.16 32.7 0.17 C34 0.18 34 0.18 35.34 0.2 C36.1 0.2 36.87 0.21 37.66 0.22 C39.67 0.36 39.67 0.36 42.67 1.36 C42.67 4.99 42.67 8.62 42.67 12.36 C34.25 12.85 34.25 12.85 25.67 13.36 C25.34 31.18 25.01 49 24.67 67.36 C21.04 67.36 17.41 67.36 13.67 67.36 C10.63 63.31 10.29 62.85 10.33 58.22 C10.33 57.2 10.33 56.18 10.33 55.13 C10.34 54.03 10.36 52.94 10.38 51.81 C10.38 50.68 10.38 49.56 10.39 48.4 C10.4 44.8 10.44 41.2 10.48 37.61 C10.5 35.17 10.51 32.73 10.52 30.29 C10.55 24.31 10.61 18.33 10.67 12.36 C5.06 12.36 -0.55 12.36 -6.33 12.36 C-7.41 5.62 -7.41 5.62 -7.33 3.36 C-5.12 0.45 -3.59 -0.02 0 0 Z " fill="#EEF1F0" transform="translate(716.33203125,955.6435546875)"/>
<path d="M0 0 C3.42 0.8 4.76 1.85 7.13 4.5 C7.85 8.27 7.71 12 7.62 15.82 C7.61 16.93 7.61 18.03 7.6 19.17 C7.57 22.7 7.51 26.22 7.45 29.75 C7.42 32.14 7.4 34.53 7.38 36.92 C7.32 42.78 7.24 48.64 7.13 54.5 C8.33 54.48 9.52 54.47 10.75 54.46 C12.31 54.45 13.88 54.44 15.45 54.43 C16.23 54.43 17.02 54.42 17.83 54.41 C18.58 54.4 19.34 54.4 20.12 54.4 C20.82 54.39 21.51 54.39 22.23 54.38 C24.13 54.5 24.13 54.5 27.13 55.5 C27.33 56.95 27.51 58.41 27.7 59.87 C27.85 61.09 27.85 61.09 28.01 62.33 C28.13 64.5 28.13 64.5 27.13 66.5 C22.49 66.57 17.84 66.62 13.2 66.66 C11.62 66.68 10.04 66.7 8.46 66.72 C6.19 66.76 3.92 66.78 1.64 66.79 C0.59 66.81 0.59 66.81 -0.5 66.84 C-5.37 66.84 -5.37 66.84 -7.55 65.34 C-9.41 62.74 -9.25 60.87 -9.26 57.7 C-9.26 56.5 -9.27 55.31 -9.28 54.09 C-9.28 52.8 -9.27 51.51 -9.27 50.18 C-9.27 48.85 -9.27 47.52 -9.27 46.18 C-9.28 43.39 -9.27 40.59 -9.26 37.8 C-9.24 34.22 -9.25 30.64 -9.27 27.06 C-9.28 24.3 -9.28 21.55 -9.27 18.79 C-9.27 16.83 -9.27 14.87 -9.28 12.91 C-9.27 11.12 -9.27 11.12 -9.26 9.3 C-9.25 8.25 -9.25 7.2 -9.25 6.11 C-8.87 3.5 -8.87 3.5 -7.59 1.66 C-5.18 0.03 -2.84 0.08 0 0 Z " fill="#E4E7E6" transform="translate(1009.8671875,955.50390625)"/>
<path d="M0 0 C0.99 0.66 1.98 1.32 3 2 C3.36 4.21 3.36 4.21 3.34 7 C3.34 8.04 3.34 9.08 3.34 10.15 C3.32 11.28 3.31 12.41 3.29 13.57 C3.29 14.72 3.28 15.87 3.28 17.06 C3.26 20.75 3.23 24.44 3.19 28.12 C3.17 30.62 3.16 33.12 3.15 35.61 C3.11 41.74 3.06 47.87 3 54 C3.59 53.99 4.18 53.98 4.79 53.97 C7.46 53.93 10.14 53.9 12.81 53.88 C13.74 53.86 14.67 53.84 15.63 53.82 C16.52 53.82 17.41 53.81 18.33 53.8 C19.15 53.79 19.98 53.78 20.82 53.77 C23 54 23 54 26 56 C26.29 58.38 26.29 58.38 26.19 61.12 C26.15 62.49 26.15 62.49 26.11 63.88 C26.07 64.58 26.04 65.28 26 66 C21.05 66.07 16.1 66.13 11.16 66.16 C9.47 66.18 7.79 66.2 6.1 66.23 C3.69 66.26 1.27 66.28 -1.15 66.29 C-1.9 66.31 -2.66 66.32 -3.44 66.34 C-5.56 66.34 -5.56 66.34 -9 66 C-11.28 62.58 -11.26 61.32 -11.29 57.31 C-11.3 56.14 -11.32 54.97 -11.33 53.77 C-11.33 52.5 -11.33 51.24 -11.34 49.94 C-11.34 48.65 -11.35 47.35 -11.36 46.01 C-11.37 43.27 -11.37 40.53 -11.37 37.79 C-11.37 34.27 -11.4 30.76 -11.43 27.25 C-11.46 23.9 -11.46 20.54 -11.46 17.19 C-11.48 15.93 -11.49 14.67 -11.5 13.37 C-11.5 12.2 -11.49 11.03 -11.49 9.82 C-11.49 8.79 -11.49 7.76 -11.49 6.7 C-10.3 0.16 -5.97 -0.65 0 0 Z " fill="#EEF1F0" transform="translate(549,956)"/>
<path d="M0 0 C1.65 0.33 3.3 0.66 5 1 C6.02 3.91 6.95 6.71 7.5 9.75 C7.83 12.19 7.83 12.19 10 14 C10.12 13.15 10.24 12.29 10.37 11.41 C10.62 9.75 10.62 9.75 10.88 8.06 C11.04 6.96 11.2 5.86 11.37 4.72 C11.58 3.82 11.78 2.93 12 2 C14 1 14 1 17 0 C20.1 2.07 20.44 2.41 21.56 5.69 C21.93 6.75 21.93 6.75 22.3 7.82 C23.28 10.87 24.17 13.92 25 17 C25.12 16.1 25.24 15.19 25.37 14.26 C25.53 13.08 25.7 11.9 25.88 10.69 C26.04 9.52 26.2 8.34 26.37 7.14 C27 4 27 4 29 1 C31.47 1.49 31.47 1.49 34 2 C31.53 22.47 31.53 22.47 27 27 C22.62 27.46 22.62 27.46 20.41 25.81 C18.62 23.51 18.29 21.67 17.81 18.81 C17.65 17.91 17.5 17.01 17.33 16.08 C17.22 15.39 17.11 14.71 17 14 C16.34 14 15.68 14 15 14 C14.95 14.77 14.9 15.54 14.85 16.34 C14.78 17.34 14.7 18.34 14.62 19.38 C14.56 20.37 14.49 21.37 14.41 22.4 C14 25 14 25 12 27 C9.5 27.25 9.5 27.25 7 27 C6.34 26.34 5.68 25.68 5 25 C5 24.01 5 23.02 5 22 C4.34 22 3.68 22 3 22 C2.8 20.98 2.8 20.98 2.6 19.95 C2.17 17.81 1.7 15.68 1.21 13.55 C0.94 12.34 0.66 11.13 0.38 9.88 C0.09 8.66 -0.19 7.44 -0.48 6.18 C-1 3 -1 3 0 0 Z " fill="#EDF0EF" transform="translate(126,1064)"/>
<path d="M0 0 C3.8 0.08 5.48 0.48 8.19 3.19 C10.03 6.04 11.57 8.92 13 12 C13.03 11.3 13.05 10.6 13.08 9.88 C13.13 8.97 13.19 8.06 13.25 7.12 C13.32 5.77 13.32 5.77 13.39 4.38 C14 2 14 2 15.92 0.62 C18 0 18 0 20 1 C20 9.25 20 17.5 20 26 C18.35 26.33 16.7 26.66 15 27 C10.81 22.33 7.94 17.54 5 12 C4.67 16.95 4.34 21.9 4 27 C0 26 0 26 -2 24 C-2.26 21.79 -2.26 21.79 -2.27 19.06 C-2.27 18.09 -2.27 17.11 -2.27 16.1 C-2.27 15.08 -2.26 14.05 -2.25 13 C-2.26 11.98 -2.27 10.95 -2.27 9.9 C-2.27 8.92 -2.27 7.94 -2.27 6.94 C-2.26 6.04 -2.26 5.14 -2.26 4.21 C-2 2 -2 2 0 0 Z M14 13 C15 15 15 15 15 15 Z " fill="#EEF1F0" transform="translate(688,1064)"/>
<path d="M0 0 C3.51 3.09 4.38 5.03 4.88 9.64 C5.15 15.4 4.56 18.82 0.62 23.31 C-3.63 26.15 -7.38 26.2 -12.38 25.31 C-15.81 23.3 -18.59 20.89 -20.38 17.31 C-21.13 10.51 -20.59 5.78 -16.38 0.31 C-11.19 -3 -5.29 -2.65 0 0 Z M-9.56 3.88 C-11.77 5.62 -12.5 6.63 -13.38 9.31 C-13.76 14.65 -13.76 14.65 -11.38 19.31 C-9.01 20.32 -9.01 20.32 -6.38 20.31 C-4.15 19.24 -4.15 19.24 -2.38 17.31 C-1.56 13.59 -1.7 10.05 -2.38 6.31 C-4.91 3.71 -6.01 2.96 -9.56 3.88 Z " fill="#EEF1F0" transform="translate(354.375,1065.6875)"/>
<path d="M0 0 C2.39 1.54 3.49 2.67 4.86 5.18 C5.92 11 6.23 16.95 3.89 22.49 C1.63 25.24 -0.33 26.02 -3.81 26.7 C-8.58 26.98 -11.25 26.85 -15.14 23.93 C-15.8 23.02 -16.46 22.11 -17.14 21.18 C-17.73 20.58 -18.33 19.98 -18.95 19.37 C-20.77 16.01 -20.75 12.85 -20.14 9.18 C-18.79 5.54 -16.87 2.83 -13.95 0.24 C-9.13 -1.58 -4.86 -1.87 0 0 Z M-9.76 5.74 C-12.82 8.88 -13.06 10.85 -13.14 15.18 C-12.33 17.55 -12.33 17.55 -11.14 19.18 C-10.48 19.18 -9.82 19.18 -9.14 19.18 C-8.81 19.84 -8.48 20.5 -8.14 21.18 C-4.89 20.09 -4.89 20.09 -2.14 18.18 C-2.01 16.2 -1.96 14.22 -1.95 12.24 C-1.94 11.16 -1.92 10.08 -1.91 8.96 C-1.85 6.04 -1.85 6.04 -4.14 4.18 C-7.22 3.92 -7.22 3.92 -9.76 5.74 Z " fill="#EDF0EF" transform="translate(190.13671875,1064.8203125)"/>
<path d="M0 0 C3.64 2.57 4.48 4.7 5.75 8.94 C6.33 14.39 5.35 18.12 2.75 22.94 C-0.97 26.39 -3.87 26.44 -8.77 26.29 C-12.41 25.77 -14.55 24.37 -17.25 21.94 C-20 17.48 -19.88 13.02 -19.25 7.94 C-18 4.23 -16.33 1.61 -12.94 -0.5 C-8.25 -1.48 -4.57 -1.49 0 0 Z M-10 5.25 C-12.56 8.71 -12.65 11.58 -12.6 15.8 C-12.42 18.19 -12.42 18.19 -10.06 20.12 C-7.27 21.18 -7.27 21.18 -4.5 20.31 C-1.94 19.08 -1.94 19.08 -1.25 15.94 C-0.81 10.05 -0.81 10.05 -3.25 4.94 C-6.15 3.82 -7.45 3.33 -10 5.25 Z " fill="#EEF1F0" transform="translate(851.25,1065.0625)"/>
<path d="M0 0 C3.5 3.08 4.41 5.02 4.84 9.64 C5.04 14.92 4.75 18.85 1.62 23.31 C-2.56 25.91 -6.58 25.87 -11.38 25.31 C-15.14 23.68 -17.23 21.78 -19.38 18.31 C-20.18 13.12 -20.5 7.28 -17.62 2.69 C-12.53 -2.7 -6.58 -3.29 0 0 Z M-11.19 5.19 C-14.09 9.34 -13.86 12.41 -13.38 17.31 C-9.91 18.8 -9.91 18.8 -6.38 20.31 C-3.32 17.85 -2.44 16.61 -1.62 12.69 C-1.49 10.9 -1.38 9.11 -1.38 7.31 C-2.03 7.31 -2.7 7.31 -3.38 7.31 C-3.38 6.32 -3.38 5.33 -3.38 4.31 C-6.95 2.98 -7.95 3.03 -11.19 5.19 Z " fill="#EEF1F0" transform="translate(740.375,1065.6875)"/>
<path d="M0 0 C3.57 0.09 5.58 0.33 8.88 1.81 C11.53 5.57 11.24 8.92 10.69 13.38 C10.48 14.07 10.28 14.76 10.07 15.47 C9.43 17.63 9.43 17.63 11.19 20.38 C12.69 23.38 12.69 23.38 12.38 25.75 C12.03 26.55 12.03 26.55 11.69 27.38 C8.99 27 7.91 26.62 6.06 24.56 C4.69 22.38 4.69 22.38 3.62 20.19 C2.82 18.2 2.82 18.2 0.69 17.38 C0.36 20.35 0.03 23.32 -0.31 26.38 C-1.63 26.7 -2.95 27.04 -4.31 27.38 C-6.04 26.25 -6.04 26.25 -7.31 24.38 C-7.68 22.05 -7.68 22.05 -7.68 19.34 C-7.68 18.37 -7.67 17.39 -7.67 16.39 C-7.66 15.37 -7.64 14.36 -7.62 13.31 C-7.63 12.29 -7.63 11.27 -7.63 10.22 C-7.56 0.1 -7.56 0.1 0 0 Z M1.69 5.38 C1.03 6.04 0.37 6.69 -0.31 7.38 C-0.31 8.69 -0.31 10.02 -0.31 11.38 C1.34 11.38 2.99 11.38 4.69 11.38 C4.69 9.72 4.69 8.08 4.69 6.38 C3.7 6.05 2.71 5.71 1.69 5.38 Z " fill="#EEF1F0" transform="translate(378.3125,1063.625)"/>
<path d="M0 0 C4.48 0.09 8.46 1.02 11.75 4.31 C11.85 5.75 11.88 7.19 11.88 8.62 C11.88 9.79 11.88 9.79 11.88 10.99 C11.75 13.31 11.75 13.31 11.15 15.31 C10.62 17.96 11.26 19.54 12.19 22.06 C12.62 23.26 12.62 23.26 13.06 24.48 C13.29 25.09 13.51 25.69 13.75 26.31 C11.89 26.91 11.89 26.91 9.75 27.31 C6.99 25.26 5.91 23.9 5 20.56 C4.88 19.45 4.88 19.45 4.75 18.31 C3.43 17.98 2.11 17.65 0.75 17.31 C0.75 20.28 0.75 23.25 0.75 26.31 C-0.57 26.64 -1.89 26.97 -3.25 27.31 C-4.98 26.19 -4.98 26.19 -6.25 24.31 C-6.62 21.98 -6.62 21.98 -6.61 19.28 C-6.61 18.3 -6.61 17.33 -6.61 16.33 C-6.6 15.31 -6.58 14.3 -6.56 13.25 C-6.57 12.23 -6.57 11.21 -6.57 10.16 C-6.5 0.03 -6.5 0.03 0 0 Z M2.75 5.31 C1.76 5.81 1.76 5.81 0.75 6.31 C0.75 8.29 0.75 10.27 0.75 12.31 C2.4 11.65 4.05 10.99 5.75 10.31 C5.75 8.99 5.75 7.67 5.75 6.31 C4.76 5.98 3.77 5.65 2.75 5.31 Z " fill="#EEF1F0" transform="translate(875.25,1063.6875)"/>
<path d="M0 0 C3.52 0.1 5.53 0.48 8.88 1.81 C11.5 4.64 11.62 5.21 11.69 8.88 C11.56 11.22 11.28 13.27 10.66 15.54 C10.03 17.44 10.03 17.44 11.19 19.25 C12.58 22.04 12.39 24.3 12.25 27.38 C10.06 27.38 10.06 27.38 7.25 26.38 C5.75 24.4 4.56 22.36 3.36 20.19 C2.37 18.22 2.37 18.22 0.25 17.38 C-0.08 20.67 -0.41 23.97 -0.75 27.38 C-3.19 27 -3.19 27 -5.75 26.38 C-7.69 22.49 -6.93 17.65 -6.94 13.38 C-6.95 12.35 -6.96 11.33 -6.97 10.27 C-6.98 8.81 -6.98 8.81 -6.98 7.31 C-6.98 6.41 -6.99 5.52 -6.99 4.59 C-6.5 0.14 -3.86 0.06 0 0 Z M1.25 5.38 C0.59 6.04 -0.07 6.69 -0.75 7.38 C-0.75 8.69 -0.75 10.02 -0.75 11.38 C0.9 11.38 2.55 11.38 4.25 11.38 C4.25 9.72 4.25 8.08 4.25 6.38 C3.26 6.05 2.27 5.71 1.25 5.38 Z M5.25 8.38 C6.25 10.38 6.25 10.38 6.25 10.38 Z " fill="#EEF1F0" transform="translate(214.75,1063.625)"/>
<path d="M0 0 C2.12 0.38 2.12 0.38 4 1 C4.06 2.91 4.06 2.91 4.11 4.87 C4.18 6.54 4.25 8.21 4.31 9.88 C4.34 10.72 4.36 11.56 4.38 12.43 C4.42 13.23 4.45 14.04 4.49 14.87 C4.51 15.61 4.54 16.35 4.57 17.12 C4.87 19.41 4.87 19.41 8 21 C10.15 20.69 10.15 20.69 12 20 C12.05 18.72 12.1 17.45 12.15 16.13 C12.22 14.46 12.3 12.79 12.38 11.12 C12.42 9.86 12.42 9.86 12.47 8.57 C12.51 7.77 12.55 6.96 12.59 6.13 C12.62 5.39 12.65 4.65 12.68 3.88 C13 2 13 2 15 0 C17.62 0.38 17.62 0.38 20 1 C20.12 4.23 20.19 7.46 20.25 10.69 C20.3 12.06 20.3 12.06 20.35 13.45 C20.42 17.82 20.44 20.29 18.11 24.08 C14.39 27.46 11.36 27.39 6.48 27.36 C4 27 4 27 0.94 24.69 C-2.37 20.09 -2.18 15.89 -2.19 10.44 C-2.2 9.66 -2.21 8.88 -2.22 8.07 C-2.23 6.05 -2.12 4.02 -2 2 C-1.34 1.34 -0.68 0.68 0 0 Z " fill="#EEF1F0" transform="translate(1075,1064)"/>
<path d="M0 0 C4.01 1.86 5 5.29 6.56 9.19 C6.94 10.09 7.31 10.99 7.7 11.92 C9.79 17.22 11.07 21.49 10.56 27.19 C8.19 27 8.19 27 5.56 26.19 C4.25 23.62 4.25 23.62 3.56 21.19 C-0.4 21.68 -0.4 21.68 -4.44 22.19 C-5.43 24.66 -5.43 24.66 -6.44 27.19 C-8.09 27.19 -9.74 27.19 -11.44 27.19 C-12.53 23.24 -12.36 21.16 -10.69 17.44 C-8.92 13.38 -7.49 9.35 -6.25 5.1 C-4.89 1.89 -3.52 0.27 0 0 Z M-2.44 10.19 C-2.44 11.84 -2.44 13.49 -2.44 15.19 C0.04 15.68 0.04 15.68 2.56 16.19 C1.9 14.21 1.24 12.23 0.56 10.19 C-0.43 10.19 -1.42 10.19 -2.44 10.19 Z " fill="#EEF1F0" transform="translate(514.4375,1063.8125)"/>
<path d="M0 0 C1.39 0.34 1.39 0.34 2.81 0.69 C3.99 3.89 5.16 7.1 6.31 10.31 C6.65 11.22 6.98 12.12 7.32 13.05 C9 17.74 10.28 21.63 9.81 26.69 C7.44 26.44 7.44 26.44 4.81 25.69 C3.5 23.62 3.5 23.62 2.81 21.69 C-0.52 21.27 -0.52 21.27 -4.19 21.69 C-6.39 24.13 -6.39 24.13 -8.19 26.69 C-9.51 26.69 -10.83 26.69 -12.19 26.69 C-13.34 23.3 -13.03 21.37 -11.86 18.03 C-11.55 17.15 -11.25 16.28 -10.93 15.37 C-10.6 14.47 -10.28 13.56 -9.94 12.62 C-9.62 11.71 -9.31 10.8 -8.99 9.87 C-5.3 -0.52 -5.3 -0.52 0 0 Z M-2.19 8.69 C-2.52 10.34 -2.85 11.99 -3.19 13.69 C-2.2 14.02 -1.21 14.35 -0.19 14.69 C-0.19 12.71 -0.19 10.73 -0.19 8.69 C-0.85 8.69 -1.51 8.69 -2.19 8.69 Z " fill="#EDF0EF" transform="translate(1051.1875,1064.3125)"/>
<path d="M0 0 C4.01 2.64 4.97 6.28 6.56 10.69 C6.94 11.72 7.31 12.75 7.7 13.81 C10.56 22.02 10.56 22.02 10.56 26.69 C7.78 26.31 5.97 26.01 3.75 24.25 C2.56 22.69 2.56 22.69 2.56 20.69 C-2.99 21.44 -2.99 21.44 -6.94 24.81 C-7.1 25.43 -7.27 26.05 -7.44 26.69 C-9.09 26.36 -10.74 26.03 -12.44 25.69 C-11.9 19.81 -10.68 14.81 -8.56 9.31 C-8.31 8.6 -8.05 7.89 -7.79 7.16 C-4.85 -0.62 -4.85 -0.62 0 0 Z M-2.44 9.69 C-2.77 11.67 -3.1 13.65 -3.44 15.69 C-2.12 15.36 -0.8 15.03 0.56 14.69 C0.23 13.04 -0.1 11.39 -0.44 9.69 C-1.1 9.69 -1.76 9.69 -2.44 9.69 Z " fill="#EEF1F0" transform="translate(930.4375,1064.3125)"/>
<path d="M0 0 C2.56 0.88 2.56 0.88 4.19 2.88 C5.98 6.79 7.3 10.76 8.56 14.88 C8.95 16.11 9.35 17.35 9.75 18.62 C10.48 21.55 10.74 23.89 10.56 26.88 C8.25 26.62 8.25 26.62 5.56 25.88 C5.09 25.19 4.61 24.51 4.12 23.81 C2.66 21.56 2.66 21.56 -0.38 21.31 C-4.37 22.05 -5.07 23.71 -7.44 26.88 C-8.76 26.88 -10.08 26.88 -11.44 26.88 C-13.21 22.71 -11.53 19.05 -10.19 15 C-9.97 14.31 -9.75 13.61 -9.53 12.89 C-8.17 8.69 -6.63 4.73 -4.44 0.88 C-2.44 -0.12 -2.44 -0.12 0 0 Z M-1.44 8.88 C-2.1 10.86 -2.76 12.84 -3.44 14.88 C-2.12 14.88 -0.8 14.88 0.56 14.88 C0.56 13.22 0.56 11.58 0.56 9.88 C-0.1 9.55 -0.76 9.21 -1.44 8.88 Z " fill="#EEF1F0" transform="translate(432.4375,1064.125)"/>
<path d="M0 0 C2.12 0.38 2.12 0.38 4 1 C4.33 3.31 4.66 5.62 5 8 C5.33 7.51 5.65 7.01 5.99 6.5 C6.43 5.86 6.86 5.22 7.31 4.56 C7.74 3.92 8.17 3.29 8.61 2.63 C10 1 10 1 13 0 C15.19 0.44 15.19 0.44 17 1 C16.54 6.03 14.01 9.15 11 13 C11.62 14.29 12.25 15.59 12.88 16.88 C13.22 17.59 13.57 18.31 13.93 19.05 C14.97 21.15 14.97 21.15 17 23 C16.62 25.12 16.62 25.12 16 27 C13.81 27 13.81 27 11 26 C9.47 23.99 8.24 21.92 7.02 19.71 C6.68 19.15 6.35 18.58 6 18 C5.67 18 5.34 18 5 18 C4.67 20.97 4.34 23.94 4 27 C1.56 26.62 1.56 26.62 -1 26 C-2.94 22.11 -2.18 17.27 -2.19 13 C-2.2 11.98 -2.21 10.95 -2.22 9.9 C-2.23 8.43 -2.23 8.43 -2.23 6.94 C-2.23 6.04 -2.24 5.14 -2.24 4.21 C-2 2 -2 2 0 0 Z " fill="#EEF1F0" transform="translate(242,1064)"/>
<path d="M0 0 C2.12 0.38 2.12 0.38 4 1 C4.06 2.2 4.12 3.41 4.18 4.65 C4.27 6.22 4.35 7.8 4.44 9.38 C4.48 10.17 4.52 10.96 4.56 11.78 C4.69 16.03 4.69 16.03 6 20 C8.48 20.75 8.48 20.75 11 21 C13.33 18.67 12.36 11.87 12.43 8.53 C12.46 7.72 12.49 6.92 12.52 6.1 C12.54 5.36 12.56 4.62 12.58 3.86 C13 2 13 2 16 0 C16.99 0.33 17.98 0.66 19 1 C19.12 4.58 19.19 8.17 19.25 11.75 C19.3 13.27 19.3 13.27 19.35 14.83 C19.45 22.3 19.45 22.3 17.29 25.67 C13.28 27.99 9.48 27.73 5 27 C1.38 24.89 -0.55 22.9 -2 19 C-2.29 16.12 -2.28 13.27 -2.25 10.38 C-2.26 9.21 -2.26 9.21 -2.27 8.02 C-2.25 2.25 -2.25 2.25 0 0 Z " fill="#EEF1F0" transform="translate(539,1064)"/>
<path d="M0 0 C4.23 0.09 7.15 0.97 10.75 3.31 C11.97 5.76 11.99 7.52 12.06 10.25 C12.1 11.13 12.14 12 12.18 12.9 C11.75 15.31 11.75 15.31 9.93 17.08 C7.75 18.31 7.75 18.31 4.62 19.06 C3.68 19.47 2.73 19.89 1.75 20.31 C0.29 23.84 0.29 23.84 -0.25 27.31 C-3.12 26.74 -4.11 26.45 -6.25 24.31 C-6.51 22.1 -6.51 22.1 -6.52 19.38 C-6.52 18.4 -6.52 17.42 -6.52 16.41 C-6.52 15.39 -6.51 14.37 -6.5 13.31 C-6.51 12.29 -6.52 11.27 -6.52 10.21 C-6.52 9.23 -6.52 8.26 -6.52 7.25 C-6.51 6.35 -6.51 5.45 -6.51 4.53 C-6.02 0.31 -3.73 0.02 0 0 Z M1.75 6.31 C0.39 7.44 0.39 7.44 0.69 10.38 C0.71 11.34 0.73 12.31 0.75 13.31 C2.07 12.98 3.39 12.65 4.75 12.31 C5.08 10.66 5.41 9.01 5.75 7.31 C3.8 6.72 3.8 6.72 1.75 6.31 Z " fill="#EEF1F0" transform="translate(989.25,1063.6875)"/>
<path d="M0 0 C5.15 0.09 8.1 1.72 11.75 5.38 C12.45 12.42 12.45 12.42 9.62 16.25 C6.69 18.42 4.27 19.47 0.75 20.38 C0.42 22.68 0.09 24.99 -0.25 27.38 C-2.69 27 -2.69 27 -5.25 26.38 C-7.19 22.49 -6.43 17.65 -6.44 13.38 C-6.45 12.35 -6.46 11.33 -6.47 10.27 C-6.48 8.81 -6.48 8.81 -6.48 7.31 C-6.48 6.41 -6.49 5.52 -6.49 4.59 C-6.03 0.39 -3.71 0.06 0 0 Z M0.75 6.38 C-0.55 7.44 -0.55 7.44 -0.31 9.94 C-0.29 10.74 -0.27 11.55 -0.25 12.38 C1.07 12.38 2.39 12.38 3.75 12.38 C5.05 11.31 5.05 11.31 4.81 8.81 C4.79 8.01 4.77 7.2 4.75 6.38 C3.43 6.38 2.11 6.38 0.75 6.38 Z " fill="#EEF1F0" transform="translate(959.25,1063.625)"/>
<path d="M0 0 C2.38 1.31 2.38 1.31 4 3 C4 3.99 4 4.98 4 6 C1.36 6 -1.28 6 -4 6 C-4 7.32 -4 8.64 -4 10 C-3.07 10.27 -2.14 10.54 -1.19 10.81 C1.89 11.96 3.05 12.49 5 15 C5.4 17.16 5.4 17.16 5.38 19.5 C5.38 20.27 5.39 21.05 5.4 21.84 C4.9 24.56 4.26 25.42 2 27 C-1.37 27.62 -4.62 27.53 -8 27 C-10.62 25 -10.62 25 -12 23 C-11.5 21.52 -11.5 21.52 -11 20 C-6.54 20.99 -6.54 20.99 -2 22 C-2.04 19.63 -2.04 19.63 -3 17 C-5.85 14.82 -5.85 14.82 -9 13 C-10.94 11.62 -10.94 11.62 -12 10 C-12 6.12 -11.45 4.49 -8.81 1.62 C-5.49 -0.29 -3.78 -0.56 0 0 Z " fill="#EEF1F0" transform="translate(583,1064)"/>
<path d="M0 0 C2.38 1 2.38 1 4 2 C4 3.32 4 4.64 4 6 C1.69 6 -0.62 6 -3 6 C-3.33 7.32 -3.66 8.64 -4 10 C-3.44 10.08 -2.89 10.16 -2.31 10.25 C0.98 11.32 2.66 12.41 5 15 C5.66 18.12 5.62 20.88 5 24 C3.56 26.06 3.56 26.06 1 27 C-2.09 27.44 -4.92 27.54 -8 27 C-10.56 25 -10.56 25 -12 23 C-11.51 21.52 -11.51 21.52 -11 20 C-7.7 20.33 -4.4 20.66 -1 21 C-2.34 16.97 -4.48 16.28 -8 14 C-10.44 12.12 -10.44 12.12 -12 10 C-12.08 6.07 -11.48 4.52 -8.81 1.62 C-5.5 -0.29 -3.77 -0.48 0 0 Z " fill="#EEF1F0" transform="translate(1119,1064)"/>
<path d="M0 0 C0.98 0.01 1.96 0.03 2.97 0.04 C3.95 0.05 4.93 0.06 5.94 0.06 C8.47 0.23 8.47 0.23 10.47 1.23 C10.47 2.55 10.47 3.87 10.47 5.23 C9.36 5.31 8.24 5.4 7.09 5.48 C3.41 5.81 3.41 5.81 2.03 8.29 C1.75 9.25 1.75 9.25 1.47 10.23 C4.11 10.56 6.75 10.89 9.47 11.23 C9.47 12.55 9.47 13.87 9.47 15.23 C8.33 15.5 7.2 15.77 6.03 16.04 C4.86 16.43 3.68 16.83 2.47 17.23 C2.14 18.22 1.81 19.21 1.47 20.23 C2.58 20.19 3.7 20.15 4.84 20.11 C8.47 20.23 8.47 20.23 10.47 22.23 C10.47 23.55 10.47 24.87 10.47 26.23 C5.85 26.23 1.23 26.23 -3.53 26.23 C-5.47 22.34 -4.72 17.51 -4.72 13.23 C-4.73 12.21 -4.74 11.18 -4.76 10.13 C-4.76 8.66 -4.76 8.66 -4.76 7.17 C-4.77 6.27 -4.77 5.37 -4.77 4.45 C-4.41 1.08 -3.31 0.3 0 0 Z " fill="#EEF1F0" transform="translate(605.53125,1063.76953125)"/>
<path d="M0 0 C0 1.98 0 3.96 0 6 C-2.31 5.34 -4.62 4.68 -7 4 C-10.8 6.94 -10.8 6.94 -12.33 11.34 C-12.31 13.56 -12.17 15.78 -12 18 C-8.04 18 -4.08 18 0 18 C0 19.65 0 21.3 0 23 C-2.48 25.48 -3.39 25.32 -6.81 25.38 C-10.4 25.3 -11.82 25.1 -15 23.25 C-19.12 18.61 -19.43 14.77 -19.32 8.7 C-18.87 4.92 -17.56 2.78 -15 0 C-10.26 -3.47 -5.02 -2.36 0 0 Z M-8 19 C-4 20 -4 20 -4 20 Z " fill="#EEF1F0" transform="translate(492,1066)"/>
<path d="M0 0 C0.88 0.01 1.76 0.03 2.66 0.04 C3.54 0.05 4.41 0.06 5.31 0.06 C7.72 0.23 7.72 0.23 10.72 1.23 C10.72 2.55 10.72 3.87 10.72 5.23 C8.08 5.89 5.44 6.55 2.72 7.23 C2.72 8.22 2.72 9.21 2.72 10.23 C5.03 10.56 7.34 10.89 9.72 11.23 C9.72 12.55 9.72 13.87 9.72 15.23 C7.41 15.89 5.1 16.55 2.72 17.23 C2.72 18.55 2.72 19.87 2.72 21.23 C5.36 21.56 8 21.89 10.72 22.23 C10.72 23.55 10.72 24.87 10.72 26.23 C6.1 26.23 1.48 26.23 -3.28 26.23 C-5.22 22.34 -4.46 17.51 -4.46 13.23 C-4.48 12.21 -4.49 11.18 -4.5 10.13 C-4.5 8.66 -4.5 8.66 -4.51 7.17 C-4.51 6.27 -4.52 5.37 -4.52 4.45 C-4.17 1.26 -3.18 0.32 0 0 Z " fill="#EEF1F0" transform="translate(1141.27734375,1063.76953125)"/>
<path d="M0 0 C1.77 -0.03 3.54 -0.05 5.31 -0.06 C6.3 -0.07 7.28 -0.09 8.3 -0.1 C11 0 11 0 14 1 C14 2.32 14 3.64 14 5 C11.69 5.33 9.38 5.66 7 6 C6.34 7.65 5.68 9.3 5 11 C5.93 10.96 6.86 10.92 7.81 10.88 C11 11 11 11 14 13 C13.67 14.32 13.34 15.64 13 17 C10.69 17 8.38 17 6 17 C5.67 19.97 5.34 22.94 5 26 C3.68 26.33 2.36 26.66 1 27 C-0.73 25.88 -0.73 25.88 -2 24 C-2.34 21.64 -2.34 21.64 -2.29 18.89 C-2.28 17.91 -2.27 16.93 -2.26 15.92 C-2.24 14.89 -2.21 13.87 -2.19 12.81 C-2.17 11.78 -2.16 10.74 -2.15 9.67 C-2.11 7.12 -2.06 4.56 -2 2 C-1.34 1.67 -0.68 1.34 0 1 C0 0.67 0 0.34 0 0 Z " fill="#EEF1F0" transform="translate(309,1064)"/>
<path d="M0 0 C1.46 0.01 1.46 0.01 2.94 0.02 C3.91 0.01 4.88 0.01 5.88 0 C8.5 0.27 8.5 0.27 11.5 2.27 C11.5 3.26 11.5 4.25 11.5 5.27 C9.19 5.6 6.88 5.93 4.5 6.27 C3.84 7.92 3.18 9.57 2.5 11.27 C4.81 11.6 7.12 11.93 9.5 12.27 C9.83 13.92 10.16 15.57 10.5 17.27 C8.19 17.27 5.88 17.27 3.5 17.27 C3.17 20.24 2.84 23.21 2.5 26.27 C1.18 26.6 -0.14 26.93 -1.5 27.27 C-3.22 26.14 -3.22 26.14 -4.5 24.27 C-4.87 21.94 -4.87 21.94 -4.86 19.23 C-4.86 18.26 -4.86 17.28 -4.86 16.28 C-4.84 15.26 -4.83 14.25 -4.81 13.2 C-4.81 12.18 -4.82 11.17 -4.82 10.12 C-4.75 0.51 -4.75 0.51 0 0 Z " fill="#EEF1F0" transform="translate(809.49609375,1063.734375)"/>
<path d="M0 0 C1.46 0 2.92 0.02 4.38 0.04 C5.11 0.04 5.85 0.04 6.61 0.04 C12.09 0.09 12.09 0.09 14.38 1.23 C14.38 2.55 14.38 3.87 14.38 5.23 C12.39 5.56 10.41 5.89 8.38 6.23 C8.04 13.16 7.72 20.09 7.38 27.23 C5.73 26.9 4.08 26.57 2.38 26.23 C1.26 23.99 1.18 22.58 1.06 20.1 C1.02 19.29 0.97 18.49 0.93 17.66 C0.89 16.81 0.85 15.97 0.81 15.11 C0.77 14.26 0.73 13.41 0.68 12.53 C0.58 10.43 0.47 8.33 0.38 6.23 C-1.27 5.9 -2.92 5.57 -4.62 5.23 C-4.96 4.24 -5.28 3.25 -5.62 2.23 C-3.62 0.23 -3.62 0.23 0 0 Z " fill="#EEF1F0" transform="translate(760.625,1063.76953125)"/>
<path d="M0 0 C3.88 1.88 3.88 1.88 5 3 C5.16 4.34 5.25 5.69 5.32 7.04 C5.36 7.84 5.4 8.65 5.44 9.49 C5.48 10.34 5.52 11.19 5.56 12.06 C5.61 12.92 5.65 13.77 5.69 14.65 C5.8 16.77 5.9 18.88 6 21 C7.98 21.33 9.96 21.66 12 22 C12 23.32 12 24.64 12 26 C7.71 26 3.42 26 -1 26 C-2.94 22.11 -2.18 17.27 -2.19 13 C-2.2 11.98 -2.21 10.95 -2.22 9.9 C-2.23 8.43 -2.23 8.43 -2.23 6.94 C-2.23 6.04 -2.24 5.14 -2.24 4.21 C-2 2 -2 2 0 0 Z " fill="#EEF1F0" transform="translate(1016,1064)"/>
<path d="M0 0 C1.65 0 3.3 0 5 0 C5.37 7.38 5.37 7.38 3.5 10.5 C3 10.99 2.51 11.49 2 12 C0.68 11.67 -0.64 11.34 -2 11 C-1.86 9.54 -1.71 8.08 -1.56 6.62 C-1.48 5.81 -1.4 5 -1.32 4.16 C-1 2 -1 2 0 0 Z " fill="#EEF1F0" transform="translate(649,1084)"/>
<path d="M0 0 C0.33 0.99 0.66 1.98 1 3 C1.66 3 2.32 3 3 3 C3 3.99 3 4.98 3 6 C2.34 6 1.68 6 1 6 C0.67 6.99 0.34 7.98 0 9 C-2.58 11.32 -3.45 12 -7 12 C-4.69 3.65 -4.69 3.65 -1.81 0.94 C-1.21 0.63 -0.62 0.32 0 0 Z M-2 4 C-1 6 -1 6 -1 6 Z " fill="#040504" transform="translate(377,428)"/>
<path d="M0 0 C0.33 0 0.66 0 1 0 C1 16.83 1 33.66 1 51 C0.67 51 0.34 51 0 51 C0 34.17 0 17.34 0 0 Z " fill="#000100" transform="translate(742,971)"/>
<path d="M0 0 C0.33 0 0.66 0 1 0 C1 11.55 1 23.1 1 35 C0.67 35 0.34 35 0 35 C0 23.45 0 11.9 0 0 Z " fill="#EEF1F0" transform="translate(689,960)"/>
<path d="M0 0 C1.32 0.33 2.64 0.66 4 1 C5.25 3.56 5.25 3.56 6 6 C6.66 6 7.32 6 8 6 C7.67 7.32 7.34 8.64 7 10 C6.01 10 5.02 10 4 10 C2.68 6.7 1.36 3.4 0 0 Z " fill="#1B1C1B" transform="translate(408,569)"/>
<path d="M0 0 C0.33 0 0.66 0 1 0 C1 5.94 1 11.88 1 18 C0.67 18 0.34 18 0 18 C0 12.06 0 6.12 0 0 Z " fill="#000100" transform="translate(559,1066)"/>
<path d="M0 0 C0.33 0 0.66 0 1 0 C1 5.61 1 11.22 1 17 C0.67 17 0.34 17 0 17 C0 11.39 0 5.78 0 0 Z " fill="#000100" transform="translate(769,1072)"/>
<path d="M0 0 C0.33 0 0.66 0 1 0 C1 5.28 1 10.56 1 16 C0.67 16 0.34 16 0 16 C0 10.72 0 5.44 0 0 Z " fill="#000100" transform="translate(1080,1067)"/>
<path d="M0 0 C0.33 0 0.66 0 1 0 C1 1.98 1 3.96 1 6 C0.01 5.01 -0.98 4.02 -2 3 C-1.34 2.01 -0.68 1.02 0 0 Z " fill="#151615" transform="translate(416,578)"/>
<path d="M0 0 C0.33 0 0.66 0 1 0 C1 2.97 1 5.94 1 9 C0.67 9 0.34 9 0 9 C0 6.03 0 3.06 0 0 Z " fill="#000100" transform="translate(993,1008)"/>
<path d="M0 0 C0.33 0 0.66 0 1 0 C1 2.64 1 5.28 1 8 C0.67 8 0.34 8 0 8 C0 5.36 0 2.72 0 0 Z " fill="#000100" transform="translate(856,1014)"/>
<path d="M0 0 C0.33 0 0.66 0 1 0 C1 2.64 1 5.28 1 8 C0.67 8 0.34 8 0 8 C0 5.36 0 2.72 0 0 Z " fill="#000100" transform="translate(993,964)"/>
<path d="M0 0 C0.33 0 0.66 0 1 0 C1 2.64 1 5.28 1 8 C0.67 8 0.34 8 0 8 C0 5.36 0 2.72 0 0 Z " fill="#000100" transform="translate(760,959)"/>
<path d="M0 0 C0.33 0 0.66 0 1 0 C1 2.31 1 4.62 1 7 C0.67 7 0.34 7 0 7 C0 4.69 0 2.38 0 0 Z " fill="#000100" transform="translate(806,1014)"/>
<path d="M0 0 C0.33 0 0.66 0 1 0 C1 2.31 1 4.62 1 7 C0.67 7 0.34 7 0 7 C0 4.69 0 2.38 0 0 Z " fill="#000100" transform="translate(856,960)"/>
<path d="M0 0 C1.98 0 3.96 0 6 0 C6 0.33 6 0.66 6 1 C4.02 1 2.04 1 0 1 C0 0.67 0 0.34 0 0 Z " fill="#EEF1F0" transform="translate(1144,1084)"/>
<path d="M0 0 C0.33 0 0.66 0 1 0 C1 1.65 1 3.3 1 5 C0.67 5 0.34 5 0 5 C0 3.35 0 1.7 0 0 Z " fill="#000100" transform="translate(390,1070)"/>
<path d="M0 0 C0.33 0 0.66 0 1 0 C1 1.65 1 3.3 1 5 C0.67 5 0.34 5 0 5 C0 3.35 0 1.7 0 0 Z " fill="#000100" transform="translate(806,961)"/>
<path d="M0 0 C0.99 0.5 0.99 0.5 2 1 C2 1.66 2 2.32 2 3 C1.34 3 0.68 3 0 3 C0 2.01 0 1.02 0 0 Z " fill="#000100" transform="translate(755,514)"/>
<path d="M0 0 C4 1 4 1 4 1 Z " fill="#EEF1F0" transform="translate(1022,1084)"/>
<path d="M0 0 C0.66 0.33 1.32 0.66 2 1 C1.01 1 0.02 1 -1 1 C-0.67 0.67 -0.34 0.34 0 0 Z " fill="#EEF1F0" transform="translate(747,746)"/>
<path d="M0 0 C0 3 0 3 0 3 Z " fill="#EEF1F0" transform="translate(816,595)"/>
<path d="M0 0 C1 4 1 4 1 4 Z " fill="#EEF1F0" transform="translate(437,586)"/>
<path d="M0 0 C1 4 1 4 1 4 Z " fill="#EEF1F0" transform="translate(528,568)"/>
<path d="M0 0 C0 3 0 3 0 3 Z " fill="#EEF1F0" transform="translate(392,407)"/>
<path d="" fill="#000100" transform="translate(0,0)"/>
<path d="" fill="#000100" transform="translate(0,0)"/>
<path d="" fill="#EEF1F0" transform="translate(0,0)"/>
<path d="M0 0 C0.33 0.66 0.66 1.32 1 2 C0.34 1.67 -0.32 1.34 -1 1 C-0.67 0.67 -0.34 0.34 0 0 Z " fill="#EEF1F0" transform="translate(796,619)"/>
<path d="" fill="#000100" transform="translate(0,0)"/>
<path d="" fill="#000100" transform="translate(0,0)"/>
<path d="M0 0 C2 1 2 1 2 1 Z " fill="#EEF1F0" transform="translate(712,680)"/>
<path d="" fill="#EEF1F0" transform="translate(0,0)"/>
<path d="" fill="#EEF1F0" transform="translate(0,0)"/>
<path d="" fill="#EEF1F0" transform="translate(0,0)"/>
<path d="" fill="#EEF1F0" transform="translate(0,0)"/>
<path d="M0 0 C2 1 2 1 2 1 Z " fill="#000100" transform="translate(500,441)"/>
<path d="M0 0 C2 1 2 1 2 1 Z " fill="#EEF1F0" transform="translate(385,415)"/>
<path d="" fill="#EEF1F0" transform="translate(0,0)"/>
<path d="M0 0 C2 1 2 1 2 1 Z " fill="#EEF1F0" transform="translate(411,389)"/>
<path d="M0 0 C2 1 2 1 2 1 Z " fill="#EEF1F0" transform="translate(471,350)"/>
<path d="" fill="#000100" transform="translate(0,0)"/>
<path d="" fill="#000100" transform="translate(0,0)"/>
<path d="" fill="#000100" transform="translate(0,0)"/>
<path d="" fill="#000100" transform="translate(0,0)"/>
<path d="" fill="#000100" transform="translate(0,0)"/>
<path d="" fill="#000100" transform="translate(0,0)"/>
<path d="" fill="#EEF1F0" transform="translate(0,0)"/>
<path d="" fill="#EEF1F0" transform="translate(0,0)"/>
<path d="" fill="#EEF1F0" transform="translate(0,0)"/>
<path d="" fill="#000100" transform="translate(0,0)"/>
<path d="" fill="#EEF1F0" transform="translate(0,0)"/>
<path d="" fill="#EEF1F0" transform="translate(0,0)"/>
<path d="" fill="#EEF1F0" transform="translate(0,0)"/>
<path d="" fill="#EEF1F0" transform="translate(0,0)"/>
<path d="" fill="#EEF1F0" transform="translate(0,0)"/>
<path d="" fill="#EEF1F0" transform="translate(0,0)"/>
<path d="" fill="#EEF1F0" transform="translate(0,0)"/>
<path d="" fill="#EEF1F0" transform="translate(0,0)"/>
<path d="" fill="#EEF1F0" transform="translate(0,0)"/>
<path d="" fill="#EEF1F0" transform="translate(0,0)"/>
<path d="" fill="#EEF1F0" transform="translate(0,0)"/>
<path d="" fill="#EEF1F0" transform="translate(0,0)"/>
<path d="" fill="#EEF1F0" transform="translate(0,0)"/>
<path d="" fill="#EEF1F0" transform="translate(0,0)"/>
<path d="" fill="#EEF1F0" transform="translate(0,0)"/>
<path d="" fill="#EEF1F0" transform="translate(0,0)"/>
<path d="" fill="#EEF1F0" transform="translate(0,0)"/>
<path d="" fill="#EEF1F0" transform="translate(0,0)"/>
<path d="" fill="#EEF1F0" transform="translate(0,0)"/>
<path d="" fill="#EEF1F0" transform="translate(0,0)"/>
<path d="" fill="#EEF1F0" transform="translate(0,0)"/>
<path d="" fill="#EEF1F0" transform="translate(0,0)"/>
<path d="" fill="#EEF1F0" transform="translate(0,0)"/>
<path d="" fill="#EEF1F0" transform="translate(0,0)"/>
<path d="" fill="#EEF1F0" transform="translate(0,0)"/>
<path d="" fill="#EEF1F0" transform="translate(0,0)"/>
<path d="" fill="#EEF1F0" transform="translate(0,0)"/>
<path d="" fill="#EEF1F0" transform="translate(0,0)"/>
<path d="" fill="#EEF1F0" transform="translate(0,0)"/>
<path d="" fill="#EEF1F0" transform="translate(0,0)"/>
<path d="" fill="#EEF1F0" transform="translate(0,0)"/>
<path d="" fill="#EEF1F0" transform="translate(0,0)"/>
<path d="" fill="#EEF1F0" transform="translate(0,0)"/>
<path d="" fill="#000100" transform="translate(0,0)"/>
<path d="" fill="#EEF1F0" transform="translate(0,0)"/>
<path d="" fill="#EEF1F0" transform="translate(0,0)"/>
<path d="" fill="#000100" transform="translate(0,0)"/>
<path d="" fill="#EEF1F0" transform="translate(0,0)"/>
<path d="" fill="#EEF1F0" transform="translate(0,0)"/>
<path d="" fill="#000100" transform="translate(0,0)"/>
<path d="" fill="#000100" transform="translate(0,0)"/>
<path d="" fill="#EEF1F0" transform="translate(0,0)"/>
<path d="" fill="#EEF1F0" transform="translate(0,0)"/>
<path d="" fill="#000100" transform="translate(0,0)"/>
<path d="" fill="#000100" transform="translate(0,0)"/>
<path d="" fill="#EEF1F0" transform="translate(0,0)"/>
<path d="" fill="#EEF1F0" transform="translate(0,0)"/>
<path d="" fill="#000100" transform="translate(0,0)"/>
<path d="" fill="#EEF1F0" transform="translate(0,0)"/>
<path d="" fill="#EEF1F0" transform="translate(0,0)"/>
<path d="" fill="#EEF1F0" transform="translate(0,0)"/>
<path d="" fill="#EEF1F0" transform="translate(0,0)"/>
<path d="" fill="#EEF1F0" transform="translate(0,0)"/>
<path d="" fill="#EEF1F0" transform="translate(0,0)"/>
<path d="" fill="#EEF1F0" transform="translate(0,0)"/>
<path d="" fill="#EEF1F0" transform="translate(0,0)"/>
<path d="" fill="#EEF1F0" transform="translate(0,0)"/>
<path d="" fill="#EEF1F0" transform="translate(0,0)"/>
<path d="" fill="#EEF1F0" transform="translate(0,0)"/>
<path d="" fill="#EEF1F0" transform="translate(0,0)"/>
<path d="" fill="#EEF1F0" transform="translate(0,0)"/>
<path d="" fill="#EEF1F0" transform="translate(0,0)"/>
<path d="" fill="#EEF1F0" transform="translate(0,0)"/>
<path d="" fill="#000100" transform="translate(0,0)"/>
<path d="" fill="#EEF1F0" transform="translate(0,0)"/>
<path d="" fill="#EEF1F0" transform="translate(0,0)"/>
<path d="" fill="#EEF1F0" transform="translate(0,0)"/>
</svg>
